<?xml version="1.0" standalone="no"?>
<!DOCTYPE svg PUBLIC "-//W3C//DTD SVG 20010904//EN"
 "http://www.w3.org/TR/2001/REC-SVG-20010904/DTD/svg10.dtd">
<svg version="1.0" xmlns="http://www.w3.org/2000/svg"
 width="1350.000000pt" height="585.000000pt" viewBox="0 0 1350.000000 585.000000"
 preserveAspectRatio="xMidYMid meet">
<metadata>
Created by potrace 1.10, written by Peter Selinger 2001-2011
</metadata>
<g transform="translate(0.000000,585.000000) scale(0.100000,-0.100000)"
fill="#000000" stroke="none">
<path d="M4794 5692 c-8 -5 -12 -193 -5 -253 2 -13 77 -18 120 -8 49 12 91 50
91 82 0 11 -9 30 -19 43 -16 21 -17 29 -8 60 10 34 9 38 -16 60 -23 20 -39 24
-90 24 -34 0 -67 -4 -73 -8z m134 -59 c2 -17 -3 -24 -21 -28 -39 -10 -71 -2
-75 19 -5 25 15 37 58 34 28 -2 36 -8 38 -25z m-23 -69 c53 -14 51 -77 -2 -87
-44 -8 -73 8 -73 41 0 45 24 60 75 46z"/>
<path d="M3935 5654 c-8 -20 -15 -41 -15 -46 0 -5 -16 -38 -36 -75 -21 -39
-34 -76 -32 -92 3 -28 27 -35 38 -11 41 89 46 95 73 98 33 4 62 -27 72 -76 5
-27 10 -33 28 -30 12 2 23 10 25 19 3 14 -48 135 -91 219 -20 39 -44 37 -62
-6z m45 -70 c0 -8 -7 -14 -15 -14 -15 0 -21 21 -9 33 10 9 24 -2 24 -19z"/>
<path d="M4344 5649 c-4 -7 -7 -51 -6 -98 2 -72 5 -88 24 -108 42 -45 85 -21
49 28 -24 33 -27 75 -7 98 12 14 12 21 -2 51 -18 36 -45 50 -58 29z"/>
<path d="M5056 5608 c-18 -21 -18 -21 5 -39 l24 -18 -28 -10 c-23 -9 -27 -16
-27 -50 0 -33 4 -40 28 -49 15 -6 47 -8 72 -4 l45 7 3 69 c3 60 0 72 -19 92
-29 31 -78 32 -103 2z m82 -95 c3 -17 -3 -24 -22 -29 -14 -3 -33 -3 -42 0 -15
6 -14 10 7 32 27 29 53 28 57 -3z"/>
<path d="M5241 5606 c-30 -32 -21 -56 29 -85 48 -27 44 -41 -11 -41 -27 0 -39
-4 -39 -14 0 -32 97 -37 124 -7 23 25 17 63 -11 77 -34 16 -63 45 -57 56 3 5
14 2 24 -7 9 -8 24 -13 33 -9 15 5 15 8 0 30 -20 32 -62 32 -92 0z"/>
<path d="M5407 5612 c-10 -10 -17 -29 -17 -41 0 -26 36 -60 63 -61 9 0 17 -7
17 -16 0 -12 -9 -15 -37 -12 -29 2 -38 -1 -41 -14 -5 -24 35 -38 79 -29 59 12
73 82 20 102 -34 13 -62 39 -55 51 3 5 16 2 30 -6 30 -20 44 -20 44 0 0 42
-72 60 -103 26z"/>
<path d="M4503 5610 c-81 -33 -64 -162 25 -186 27 -8 92 21 92 41 0 8 5 15 10
15 17 0 11 79 -7 99 -37 39 -76 49 -120 31z m75 -78 c6 -58 -30 -80 -69 -41
-34 34 -9 82 41 77 20 -3 26 -9 28 -36z"/>
<path d="M4133 5598 c-4 -7 -6 -40 -4 -73 2 -44 8 -66 24 -82 21 -24 61 -31
72 -13 4 6 14 8 23 6 35 -11 45 9 43 85 -2 72 -11 92 -38 82 -9 -4 -11 -19 -7
-57 6 -48 4 -53 -20 -69 -25 -17 -26 -16 -42 8 -12 18 -14 35 -10 61 10 48
-20 85 -41 52z"/>
<path d="M7086 5407 c-16 -12 -18 -30 -19 -138 -1 -110 1 -124 16 -127 30 -6
48 16 35 43 -23 51 15 74 48 29 46 -63 56 -74 70 -74 28 0 26 30 -5 65 -36 42
-38 51 -11 65 26 14 42 54 34 86 -13 51 -123 84 -168 51z m124 -63 c13 -14 12
-17 -9 -35 -13 -10 -30 -19 -38 -19 -26 0 -53 20 -53 40 0 40 65 49 100 14z"/>
<path d="M7309 5413 c0 -5 -1 -64 -2 -131 -2 -89 2 -127 11 -134 24 -20 39 8
34 65 -3 41 0 57 13 70 19 19 24 20 45 7 11 -7 15 -27 15 -72 0 -58 2 -63 23
-66 21 -3 22 0 22 68 0 62 -3 74 -24 95 -20 20 -31 23 -60 18 -35 -5 -36 -5
-36 25 0 40 -9 62 -26 62 -8 0 -14 -3 -15 -7z"/>
<path d="M7827 5413 c-3 -5 -6 -66 -6 -137 l-1 -127 28 3 c26 3 27 5 27 65 0
65 11 87 41 81 16 -3 19 -14 22 -76 3 -73 3 -73 30 -70 26 3 27 4 24 63 -4 78
-18 115 -46 116 -58 3 -61 4 -66 33 -5 29 -44 64 -53 49z"/>
<path d="M10254 5378 c-71 -55 -88 -113 -54 -181 41 -80 118 -108 185 -67 39
24 75 84 75 124 0 112 -125 186 -206 124z m123 -50 c33 -31 33 -107 -1 -142
-62 -67 -154 8 -126 103 5 18 17 39 27 47 27 20 74 17 100 -8z"/>
<path d="M10817 5393 c-2 -5 -3 -66 -3 -138 2 -126 2 -130 24 -133 21 -3 22 0
22 67 0 59 3 71 19 76 22 7 50 -3 52 -19 1 -6 2 -36 3 -66 1 -48 4 -55 21 -55
19 0 20 6 17 80 -4 91 -14 105 -74 105 -38 0 -38 1 -38 39 0 26 -5 41 -16 45
-20 8 -22 8 -27 -1z"/>
<path d="M6225 5360 c-4 -16 -11 -32 -16 -35 -5 -4 -9 -13 -9 -21 0 -20 -38
-105 -57 -126 -23 -26 -8 -60 25 -56 24 3 28 9 33 46 6 48 20 62 61 62 29 0
58 -31 58 -62 0 -19 35 -42 50 -33 15 10 12 24 -21 94 -43 92 -57 123 -63 144
-3 10 -15 17 -30 17 -19 0 -26 -7 -31 -30z m36 -75 c-1 -15 -24 -12 -29 3 -3
9 2 13 12 10 10 -1 17 -7 17 -13z"/>
<path d="M4265 5354 c-92 -47 -111 -129 -47 -199 35 -39 69 -61 109 -69 49
-11 73 0 73 35 0 29 -17 38 -36 19 -13 -13 -72 10 -97 38 -50 55 -19 142 50
142 22 0 41 -7 49 -17 12 -16 14 -17 29 -2 48 47 -57 91 -130 53z"/>
<path d="M7701 5348 c-4 -13 -6 -55 -3 -95 5 -77 25 -113 63 -113 27 0 37 30
15 45 -23 17 -30 74 -13 105 11 21 11 29 -3 52 -18 34 -48 36 -59 6z"/>
<path d="M4464 5349 c-8 -14 -15 -217 -8 -241 6 -22 40 -24 47 -3 4 8 3 37 0
66 -6 55 2 69 43 69 28 0 36 -21 29 -79 -7 -52 5 -77 30 -67 15 5 17 18 13 82
-4 87 -17 104 -80 104 -34 0 -38 3 -38 24 0 47 -19 71 -36 45z"/>
<path d="M5127 5353 c-3 -5 -8 -22 -11 -39 -6 -26 -13 -32 -41 -37 -85 -14
-113 -115 -45 -166 25 -18 38 -20 85 -15 l55 7 0 103 c0 56 -4 114 -10 128 -9
25 -24 34 -33 19z m-9 -155 c4 -44 -24 -66 -58 -48 -39 21 -10 94 34 88 16 -2
22 -12 24 -40z"/>
<path d="M6637 5342 c-19 -20 -22 -62 -8 -77 6 -6 11 -35 13 -65 3 -52 5 -55
31 -58 33 -4 50 25 24 40 -18 10 -23 67 -8 96 11 22 -6 82 -23 82 -7 0 -20 -8
-29 -18z"/>
<path d="M11375 5324 c-15 -29 -17 -39 -7 -55 7 -10 12 -39 12 -65 0 -58 14
-84 45 -84 34 0 40 16 16 46 -25 32 -27 81 -4 106 12 14 14 21 6 26 -7 4 -16
20 -22 35 -14 36 -23 34 -46 -9z"/>
<path d="M8083 5332 c-24 -2 -43 -6 -43 -10 0 -4 -2 -43 -3 -87 l-2 -80 27 -3
c27 -3 27 -3 30 70 3 70 4 73 28 73 24 0 25 -3 28 -73 3 -73 3 -73 30 -70 26
3 27 6 30 68 3 72 10 85 41 75 18 -5 21 -14 21 -66 0 -44 4 -59 14 -59 33 0
46 13 46 46 0 40 -28 113 -44 115 -25 3 -164 4 -203 1z"/>
<path d="M6765 5300 c-39 -40 -41 -97 -6 -134 20 -21 34 -26 72 -26 40 0 51 4
73 31 38 44 35 84 -10 125 -47 45 -89 46 -129 4z m109 -52 c13 -21 -17 -68
-44 -68 -47 0 -67 66 -27 93 24 17 50 7 71 -25z"/>
<path d="M7504 5298 c4 -18 15 -50 26 -71 26 -50 26 -97 1 -104 -26 -7 -33
-27 -17 -49 12 -16 14 -16 38 2 26 19 58 67 58 86 0 11 23 66 46 111 19 39 18
57 -4 57 -21 0 -42 -38 -42 -75 0 -13 -4 -26 -9 -29 -12 -8 -40 37 -48 74 -4
24 -11 30 -30 30 -23 0 -25 -3 -19 -32z"/>
<path d="M6422 5302 c-10 -7 -11 -23 -2 -78 6 -38 16 -73 21 -79 12 -12 129
-9 142 4 4 4 7 41 5 82 -3 73 -3 74 -32 77 -29 4 -29 3 -23 -39 7 -57 -6 -91
-36 -87 -19 3 -23 10 -27 63 -5 61 -18 76 -48 57z"/>
<path d="M10507 5298 c-15 -11 -17 -26 -15 -93 3 -79 3 -80 30 -83 27 -3 27
-3 30 70 3 68 5 73 26 76 15 2 22 9 20 20 -4 22 -66 28 -91 10z"/>
<path d="M10639 5278 c-16 -18 -29 -43 -29 -56 0 -55 82 -121 134 -108 34 8
32 39 -3 44 -42 6 -71 32 -71 62 0 37 20 52 58 44 25 -5 33 -3 38 11 9 22 -12
35 -59 35 -30 0 -44 -7 -68 -32z"/>
<path d="M11057 5304 c-23 -7 -60 -80 -52 -104 3 -10 20 -32 37 -49 36 -35
101 -44 112 -15 9 24 -3 36 -30 30 -29 -8 -64 9 -64 29 0 11 11 15 39 15 54 0
71 8 71 34 -1 46 -57 75 -113 60z m53 -49 c0 -8 -9 -15 -20 -15 -11 0 -20 7
-20 15 0 8 9 15 20 15 11 0 20 -7 20 -15z"/>
<path d="M11228 5303 c-13 -3 -18 -14 -18 -38 0 -36 11 -49 53 -59 39 -9 28
-31 -15 -31 -20 0 -40 -4 -44 -8 -12 -12 36 -47 63 -47 27 0 73 37 73 60 0 27
-28 57 -60 64 -40 8 -29 26 16 26 22 0 34 5 34 14 0 23 -51 33 -102 19z"/>
<path d="M11507 5303 c-9 -8 -9 -146 -1 -167 17 -45 54 16 39 64 -12 37 3 70
30 70 18 0 25 5 25 20 0 17 -7 20 -43 20 -24 0 -47 -3 -50 -7z"/>
<path d="M11641 5301 c-19 -12 -7 -27 29 -35 36 -7 31 -26 -5 -26 -25 0 -45
-25 -45 -58 0 -39 77 -82 95 -52 3 6 19 10 36 10 l29 0 0 68 c0 54 -4 72 -18
85 -20 18 -97 23 -121 8z m84 -96 c0 -27 -30 -42 -50 -25 -15 13 -15 15 7 32
27 21 43 18 43 -7z"/>
<path d="M4688 5270 c-28 -17 -42 -76 -27 -113 37 -89 139 -88 170 2 13 37 -3
96 -31 111 -24 13 -90 12 -112 0z m90 -42 c21 -21 15 -67 -12 -79 -47 -22 -81
21 -60 75 7 19 55 21 72 4z"/>
<path d="M4878 5205 c-3 -83 5 -119 24 -113 8 3 14 29 16 70 3 64 4 67 33 77
44 15 31 35 -23 39 l-46 3 -4 -76z"/>
<path d="M8940 5040 c-27 -27 -18 -38 35 -42 l40 -3 -3 -101 c-4 -105 1 -121
36 -110 16 5 18 18 18 109 l-1 102 38 3 c33 3 38 6 35 25 -3 19 -10 22 -58 24
-30 1 -69 5 -87 9 -24 5 -36 1 -53 -16z"/>
<path d="M6651 5014 c-56 -47 -30 -98 65 -132 53 -20 69 -47 38 -69 -27 -20
-55 -16 -85 13 -29 27 -59 27 -59 0 0 -18 47 -64 73 -72 35 -11 85 6 111 37
45 54 26 100 -55 134 -37 16 -55 30 -57 43 -4 28 32 38 63 18 51 -33 85 -7 41
31 -38 32 -95 31 -135 -3z"/>
<path d="M10485 5013 c-81 -21 -68 -117 19 -137 46 -11 77 -36 74 -60 -3 -18
-10 -21 -52 -20 -34 0 -51 5 -58 17 -11 21 -37 22 -45 1 -8 -22 33 -61 73 -69
69 -12 134 32 134 90 0 24 -55 72 -89 80 -16 3 -36 14 -45 24 -15 17 -15 19 0
32 13 11 23 11 60 -3 42 -15 45 -15 54 2 7 13 5 21 -5 30 -17 14 -89 22 -120
13z"/>
<path d="M4126 5002 c-46 -10 -74 -63 -51 -98 14 -21 31 -31 108 -63 55 -22
42 -71 -18 -71 -24 0 -39 7 -54 26 -24 31 -51 26 -51 -10 0 -32 44 -60 96 -61
117 0 152 111 49 159 -76 36 -86 45 -75 66 14 25 34 25 75 0 29 -18 34 -19 45
-4 29 35 -52 72 -124 56z"/>
<path d="M7230 4961 c-17 -34 -18 -41 -5 -51 10 -8 15 -31 15 -62 0 -62 13
-88 45 -88 29 0 33 24 10 54 -19 25 -19 75 0 96 13 14 12 20 -2 53 -10 20 -23
37 -30 37 -7 0 -22 -18 -33 -39z"/>
<path d="M9540 4970 c-14 -4 -59 -5 -101 -2 -42 3 -79 1 -82 -4 -8 -14 -12
-172 -5 -180 4 -3 16 -3 28 1 18 6 21 13 19 60 -3 58 11 85 42 85 23 0 34 -37
25 -89 -4 -28 -2 -42 9 -51 26 -21 44 4 38 51 -7 47 12 89 38 89 28 0 42 -37
35 -90 -5 -34 -3 -49 6 -52 29 -11 38 4 38 66 0 87 -35 131 -90 116z"/>
<path d="M9725 4973 c-16 -3 -34 -8 -39 -13 -4 -4 -9 -59 -10 -122 -1 -106 0
-113 19 -113 12 0 21 9 25 25 4 17 16 27 40 34 53 15 72 39 78 94 4 45 2 50
-28 75 -17 15 -37 26 -43 26 -7 -1 -25 -4 -42 -6z m63 -55 c29 -29 -1 -98 -44
-98 -13 0 -25 3 -25 8 -7 45 -6 68 2 84 11 20 49 24 67 6z"/>
<path d="M9924 4971 c-22 -10 -74 -73 -74 -91 0 -7 9 -23 20 -37 11 -14 20
-31 20 -38 0 -15 31 -25 78 -25 106 0 112 177 6 195 -16 2 -38 1 -50 -4z m71
-65 c26 -39 -2 -86 -51 -86 -23 0 -37 49 -23 82 15 36 52 38 74 4z"/>
<path d="M11045 4954 c-15 -23 -16 -33 -6 -64 6 -21 11 -53 11 -73 0 -39 21
-67 51 -67 29 0 35 29 10 46 -26 19 -29 84 -5 109 15 15 15 17 0 34 -9 10 -16
23 -16 29 0 21 -27 13 -45 -14z"/>
<path d="M4684 4933 c-11 -28 -13 -43 -5 -55 6 -10 11 -40 11 -66 0 -51 20
-82 53 -82 22 0 23 43 2 60 -19 16 -20 74 -1 89 12 10 12 18 -1 51 -20 50 -38
51 -59 3z"/>
<path d="M4820 4956 c0 -9 7 -16 16 -16 9 0 14 5 12 12 -6 18 -28 21 -28 4z"/>
<path d="M7105 4958 c-48 -26 -65 -51 -65 -94 0 -35 5 -47 32 -69 40 -34 70
-45 97 -38 36 9 23 46 -18 54 -18 4 -43 16 -54 28 -18 17 -19 24 -9 46 11 24
17 26 59 23 58 -4 67 14 21 42 -38 23 -37 23 -63 8z"/>
<path d="M7505 4953 c-43 -22 -55 -41 -55 -90 0 -37 5 -49 32 -74 44 -40 83
-39 120 3 38 43 43 69 23 109 -10 19 -18 35 -19 36 -1 1 -18 9 -37 17 -30 12
-38 12 -64 -1z m73 -85 c3 -32 -1 -40 -21 -49 -35 -16 -67 3 -67 39 0 37 18
54 55 50 27 -3 30 -7 33 -40z"/>
<path d="M7757 4963 c-4 -3 -24 -9 -44 -12 l-38 -6 -3 -83 c-2 -68 0 -83 13
-88 27 -11 40 14 40 74 0 57 0 57 30 57 30 0 30 0 33 -65 3 -74 11 -87 41 -71
40 22 22 136 -28 178 -28 25 -34 27 -44 16z"/>
<path d="M9171 4935 c-40 -46 -41 -83 -2 -124 23 -25 37 -31 70 -31 23 0 41 5
41 10 0 6 0 13 0 18 1 4 -16 9 -37 12 -33 4 -38 9 -38 30 0 23 4 25 47 25 64
0 74 13 45 56 -18 26 -31 35 -58 37 -31 3 -41 -2 -68 -33z m79 -10 c0 -8 -9
-15 -20 -15 -11 0 -20 7 -20 15 0 8 9 15 20 15 11 0 20 -7 20 -15z"/>
<path d="M6893 4940 c-36 -22 -48 -54 -39 -103 12 -62 102 -104 133 -61 21 28
16 37 -18 30 -39 -7 -85 19 -68 40 6 8 21 11 39 8 69 -14 97 50 38 86 -41 25
-45 25 -85 0z m62 -40 c8 -13 -20 -24 -41 -16 -20 8 -9 26 16 26 10 0 22 -5
25 -10z"/>
<path d="M7367 4943 c-13 -13 -8 -160 6 -172 24 -19 37 9 37 80 0 37 -3 74 -6
83 -6 16 -26 21 -37 9z"/>
<path d="M10727 4942 c-63 -13 -85 -115 -38 -166 26 -28 76 -35 112 -15 26 14
15 29 -22 29 -41 0 -69 17 -69 40 0 18 7 20 55 20 52 0 55 1 55 25 0 42 -48
77 -93 67z m34 -47 c0 -5 -9 -11 -21 -13 -20 -3 -27 8 -13 22 10 9 34 3 34 -9z"/>
<path d="M10881 4924 c-26 -21 -31 -33 -31 -68 0 -77 83 -134 140 -96 13 9 12
12 -4 25 -11 8 -29 15 -40 15 -12 0 -29 12 -40 26 -16 22 -17 29 -5 50 13 25
62 34 74 14 9 -15 25 -2 25 20 0 44 -73 53 -119 14z"/>
<path d="M11177 4943 c-4 -3 -7 -46 -7 -94 0 -63 4 -88 13 -92 27 -10 34 9 32
89 -2 93 -14 122 -38 97z"/>
<path d="M11287 4922 c-77 -81 21 -219 111 -156 35 24 55 82 41 116 -29 69
-105 89 -152 40z m101 -52 c7 -45 -6 -70 -38 -70 -36 0 -54 29 -45 70 10 46
77 46 83 0z"/>
<path d="M11498 4943 c-16 -4 -18 -17 -18 -94 l0 -89 26 0 c26 0 26 1 20 53
-6 45 -4 57 13 78 16 20 23 22 38 13 14 -9 18 -25 19 -65 1 -78 2 -79 29 -79
24 0 25 2 25 66 0 63 -11 101 -34 116 -12 8 -89 9 -118 1z"/>
<path d="M4555 4928 c-48 -26 -65 -51 -65 -93 0 -30 6 -47 23 -62 31 -29 61
-43 92 -43 38 0 29 29 -18 53 -47 24 -62 49 -47 78 10 17 19 20 57 17 58 -4
67 14 21 42 -38 23 -37 23 -63 8z"/>
<path d="M4942 4918 c-72 -45 -50 -161 36 -184 34 -9 71 14 94 60 19 37 19 41
3 75 -15 34 -63 72 -88 70 -7 0 -27 -10 -45 -21z m86 -80 c2 -29 -1 -39 -18
-48 -27 -14 -70 10 -70 39 0 41 11 52 49 49 34 -3 36 -5 39 -40z"/>
<path d="M5185 4930 c-4 -6 -19 -9 -33 -8 l-27 3 -3 -88 -3 -88 28 3 c27 3 28
4 25 60 -3 49 -1 58 18 68 35 19 51 -4 49 -67 -3 -61 11 -84 39 -67 36 23 26
132 -15 170 -27 25 -67 32 -78 14z"/>
<path d="M4355 4918 c-44 -25 -57 -50 -50 -98 8 -54 44 -89 93 -90 35 0 46 26
15 36 -79 25 -84 52 -10 56 51 3 52 4 55 35 3 28 -2 36 -30 53 -38 23 -45 24
-73 8z m56 -53 c0 -5 -7 -12 -16 -13 -23 -5 -47 6 -40 19 8 13 56 8 56 -6z"/>
<path d="M4817 4913 c-4 -3 -7 -42 -7 -85 0 -63 3 -80 16 -85 9 -3 20 0 24 8
7 10 7 122 1 162 -1 9 -25 9 -34 0z"/>
<path d="M12372 4780 c-35 -38 -58 -88 -45 -101 9 -9 13 -6 19 15 8 32 9 32
39 -1 19 -22 24 -39 25 -80 0 -39 4 -53 14 -53 32 0 44 28 45 105 1 84 -9 97
-55 76 -36 -16 -52 -2 -23 20 18 13 21 21 13 29 -9 9 -17 6 -32 -10z"/>
<path d="M12596 4782 c-2 -4 6 -17 20 -29 29 -26 42 -13 17 17 -19 21 -29 25
-37 12z"/>
<path d="M1376 4740 c-36 -11 -46 -26 -46 -66 0 -38 18 -54 93 -84 38 -16 57
-29 57 -41 0 -35 -89 -42 -112 -8 -10 16 -20 20 -36 15 -28 -9 -28 -27 1 -53
42 -37 78 -46 122 -27 48 20 64 40 65 80 0 38 -22 60 -86 83 -36 12 -49 22
-49 36 0 16 6 20 35 18 19 0 47 -4 63 -8 23 -6 27 -4 27 13 0 11 -7 25 -15 32
-19 16 -83 21 -119 10z"/>
<path d="M12518 4736 c-22 -16 -22 -34 -2 -61 10 -13 13 -31 9 -55 -7 -44 16
-83 37 -62 9 9 13 41 13 100 0 80 -2 87 -20 89 -11 2 -28 -3 -37 -11z"/>
<path d="M2154 4608 c2 -125 9 -144 42 -118 8 7 12 21 9 30 -3 9 1 23 9 29 13
11 19 7 36 -21 11 -18 20 -37 20 -41 0 -15 45 -2 48 14 2 9 -8 27 -22 40 -29
27 -34 64 -11 73 15 5 22 56 8 56 -4 0 -21 -14 -39 -31 -18 -17 -37 -28 -42
-25 -6 4 -8 29 -5 61 l6 55 -31 0 -31 0 3 -122z"/>
<path d="M11024 4684 c-4 -15 -4 -59 -1 -100 4 -40 4 -80 1 -87 -4 -12 -51
-15 -262 -16 -265 -1 -315 -5 -330 -25 -5 -6 -12 -48 -14 -93 l-5 -83 32 0 32
0 -5 70 c-4 55 -2 70 9 72 8 1 64 2 124 2 61 1 318 3 572 4 254 2 467 1 474
-3 8 -5 10 -30 7 -76 l-5 -69 35 0 35 0 -7 97 c-4 54 -10 101 -13 106 -2 4
-142 7 -310 7 -195 -1 -308 2 -312 8 -3 6 -3 50 0 99 5 73 4 90 -9 101 -25 19
-41 14 -48 -14z"/>
<path d="M3380 4685 c0 -9 5 -15 11 -13 6 2 11 8 11 13 0 5 -5 11 -11 13 -6 2
-11 -4 -11 -13z"/>
<path d="M1605 4663 c-11 -3 -23 -8 -27 -11 -3 -4 -8 -61 -9 -127 l-4 -120 25
0 c22 0 25 5 28 38 3 34 6 37 33 37 46 0 89 48 89 99 0 69 -55 103 -135 84z
m80 -53 c34 -37 -12 -105 -59 -87 -21 8 -21 65 1 89 21 23 36 23 58 -2z"/>
<path d="M1788 4628 c-21 -24 -38 -46 -38 -50 0 -11 49 -81 63 -90 20 -13 74
-9 87 7 14 17 5 22 -45 27 -25 2 -30 8 -30 28 0 21 4 25 30 23 78 -4 92 15 49
66 -37 45 -70 41 -116 -11z m80 -5 c2 -8 -5 -13 -17 -13 -12 0 -21 6 -21 16 0
18 31 15 38 -3z"/>
<path d="M1984 4649 c-18 -20 -18 -21 0 -35 19 -13 18 -14 -7 -38 -31 -29 -33
-43 -11 -74 12 -17 25 -22 60 -22 76 0 85 10 79 88 -4 52 -9 71 -26 85 -29 23
-72 22 -95 -4z m60 -18 c3 -5 -1 -12 -10 -15 -22 -9 -24 -8 -24 9 0 16 25 21
34 6z m14 -78 c-3 -29 -32 -43 -50 -25 -15 15 9 52 33 52 16 0 20 -5 17 -27z"/>
<path d="M2376 4639 c-54 -64 -15 -159 65 -159 32 0 39 3 39 20 0 15 -7 20
-27 20 -37 0 -56 13 -51 36 3 15 11 18 56 15 53 -3 58 1 52 39 -3 25 -50 60
-80 60 -19 0 -36 -10 -54 -31z m74 -14 c0 -8 -7 -15 -15 -15 -8 0 -15 7 -15
15 0 8 7 15 15 15 8 0 15 -7 15 -15z"/>
<path d="M2573 4658 c-6 -7 -12 -49 -14 -93 -4 -80 -4 -80 21 -80 23 0 25 4
27 50 1 28 2 55 2 62 1 6 11 13 24 15 16 2 22 10 22 28 0 21 -5 25 -36 28 -21
2 -40 -2 -46 -10z"/>
<path d="M3475 4645 l-30 -25 23 -16 c17 -13 22 -26 22 -59 0 -49 18 -70 51
-60 20 7 21 11 15 81 -4 41 -9 81 -13 89 -8 22 -34 18 -68 -10z"/>
<path d="M3632 4658 c7 -20 48 -23 48 -4 0 11 -9 16 -26 16 -16 0 -24 -5 -22
-12z"/>
<path d="M7217 4663 c-4 -4 -5 -56 -1 -115 l7 -108 -249 -2 c-137 -1 -276 -2
-309 -3 -33 -2 -255 -3 -492 -4 -419 -1 -434 -2 -453 -21 -14 -14 -20 -33 -20
-67 0 -74 -7 -86 -57 -108 -40 -18 -103 -77 -103 -97 0 -20 29 -4 69 40 l44
47 69 -2 c37 -1 68 0 68 3 0 2 -9 13 -21 25 -16 16 -19 30 -17 67 l3 47 355 6
c278 4 358 3 369 -7 11 -10 12 -21 2 -60 -13 -52 -7 -64 38 -64 23 0 24 2 18
59 -2 32 -2 63 2 68 9 16 236 23 761 25 l475 3 3 -58 c3 -55 2 -57 -21 -57
-14 0 -30 -7 -37 -15 -7 -8 -18 -15 -24 -15 -20 0 -56 -57 -58 -92 -4 -44 25
-46 32 -3 7 45 55 92 100 100 68 11 108 -3 143 -51 33 -44 57 -56 57 -29 0 23
-41 75 -59 75 -35 1 -71 44 -77 92 -6 44 -5 47 17 53 13 3 231 4 484 3 l460
-3 -2 -50 c-1 -40 -7 -54 -28 -72 -14 -13 -34 -23 -44 -23 -21 0 -56 -36 -66
-67 -3 -13 -11 -23 -17 -23 -7 0 -9 -20 -6 -55 3 -41 1 -56 -10 -60 -26 -10
-641 -5 -647 5 -12 19 -30 9 -55 -30 -13 -22 -32 -40 -41 -40 -10 0 -20 -4
-24 -9 -3 -5 -19 -12 -35 -16 -37 -8 -43 -17 -31 -48 7 -18 6 -28 -2 -35 -7
-5 -140 -10 -297 -11 -230 -2 -288 -5 -299 -16 -11 -11 -14 -39 -12 -117 3
-118 8 -148 26 -148 20 0 25 25 25 126 0 68 3 94 13 95 6 1 71 3 142 4 72 1
331 6 577 10 l447 8 3 -99 c3 -94 4 -99 26 -102 22 -3 22 -2 22 115 0 122 -7
150 -33 140 -8 -3 -140 -7 -294 -8 l-278 -2 0 39 c0 31 4 39 20 42 11 2 27 10
35 17 20 17 158 25 482 27 234 1 269 -1 292 -15 45 -30 49 -18 12 33 -28 39
-36 60 -36 94 0 39 6 49 49 95 46 49 51 51 101 51 46 0 51 2 44 18 -4 9 -6 44
-5 77 1 34 -3 73 -8 88 l-11 27 -347 0 c-192 0 -538 -5 -771 -11 -232 -7 -425
-9 -430 -5 -4 4 -7 56 -7 114 l0 107 -25 3 c-14 2 -29 0 -33 -5z"/>
<path d="M3346 4625 c-31 -74 14 -168 103 -211 l38 -18 5 -191 c3 -104 3 -196
0 -204 -3 -9 -16 -12 -41 -8 -20 3 -344 2 -721 -2 -377 -4 -690 -6 -696 -4 -7
2 -10 62 -9 174 1 177 -3 195 -42 187 -17 -3 -18 -18 -18 -183 l0 -179 -645
-3 c-757 -5 -725 -1 -818 -95 -56 -56 -60 -62 -76 -126 -19 -71 -21 -415 -6
-817 5 -137 12 -632 15 -1100 4 -467 10 -877 16 -910 5 -33 9 -191 9 -350 0
-282 1 -292 23 -332 34 -64 78 -109 131 -133 l48 -22 1284 8 1284 7 0 -57 c0
-56 0 -56 31 -56 l30 0 -3 52 -3 53 600 6 c899 9 2048 18 3000 24 468 2 996 9
1175 14 179 5 897 13 1595 16 699 4 1318 8 1375 10 398 11 717 16 1378 20
l752 6 48 25 c61 32 92 63 119 116 42 85 46 131 39 544 -7 505 -16 1488 -20
2319 -3 648 -3 661 -24 707 -28 63 -79 112 -148 144 l-56 25 -291 -2 -292 -2
-3 189 c-3 207 0 233 26 236 9 1 -10 4 -43 7 -71 7 -99 2 -68 -12 20 -9 21
-17 25 -211 1 -110 0 -203 -4 -206 -3 -3 -153 -5 -332 -5 l-326 0 0 -28 0 -28
283 5 c155 4 300 9 323 12 28 4 44 1 52 -8 6 -8 12 -54 14 -104 3 -84 4 -89
26 -92 25 -4 25 -6 26 112 l1 89 280 -2 c337 -3 387 -14 437 -92 46 -73 46
-51 49 -1849 l4 -1695 -26 -40 c-58 -88 -126 -116 -255 -105 -45 3 -115 5
-155 3 -106 -6 -1771 -21 -2429 -23 -305 -1 -580 -6 -610 -11 -30 -4 -563 -10
-1185 -13 -621 -3 -1188 -10 -1260 -15 -71 -5 -848 -13 -1725 -16 -1596 -7
-2310 -16 -2342 -29 -21 -9 -35 15 -39 69 l-4 40 100 2 c55 1 217 7 360 13
143 5 562 10 930 11 369 0 688 4 710 7 39 7 40 8 43 52 1 25 -2 52 -8 60 -9
13 -13 12 -30 -9 -11 -13 -20 -29 -20 -37 0 -8 -3 -14 -7 -14 -5 0 -146 -3
-315 -6 l-306 -6 -4 23 c-4 31 -39 32 -52 3 -9 -21 -15 -21 -475 -28 -256 -3
-767 -9 -1136 -11 -368 -3 -710 -8 -760 -10 -66 -3 -1015 -8 -1102 -5 -8 0
-13 15 -13 41 0 38 -1 40 -27 37 -35 -4 -41 -39 -19 -93 l16 -37 1032 4 1033
3 0 -48 0 -48 -680 -4 c-1508 -9 -1868 -7 -1911 11 -43 18 -76 51 -105 107
-19 35 -20 64 -25 465 -3 235 -9 499 -14 587 -4 88 -9 322 -9 520 -2 568 -11
1538 -16 1670 -3 67 0 157 7 204 11 82 13 85 63 136 64 64 68 65 330 65 110 0
281 5 380 10 207 10 713 15 722 7 11 -12 15 -94 4 -101 -6 -4 -203 -7 -439 -6
l-429 0 -6 -45 c-11 -80 -28 -75 282 -75 277 0 355 -5 345 -21 -3 -5 -13 -9
-23 -9 -10 0 -21 -8 -23 -18 -5 -18 -20 -18 -292 -14 l-287 5 3 -64 3 -64 300
0 c165 0 305 -4 312 -8 20 -12 4 -34 -30 -42 -18 -4 -156 -8 -307 -9 l-275 -1
-3 -62 c-2 -51 0 -63 15 -71 10 -5 80 -5 163 -1 80 4 200 8 267 8 114 1 123 0
133 -20 9 -16 14 -18 26 -8 11 9 14 8 14 -6 0 -25 34 -14 38 13 2 12 6 22 10
22 52 4 432 5 445 2 12 -3 16 -10 12 -23 -6 -19 -3 -20 52 -23 10 -1 19 9 23
24 l6 25 284 3 c212 2 286 5 292 15 4 6 8 30 8 53 0 40 -22 74 -48 74 -23 0
-22 -21 3 -44 l25 -24 -27 -7 c-29 -7 -282 -14 -613 -16 l-195 -1 -2 66 -2 67
114 -2 c119 -2 146 -8 123 -26 -7 -6 -22 -12 -32 -14 -35 -7 -28 -27 11 -31
54 -7 64 -1 52 29 -5 13 -7 29 -3 34 3 5 128 9 289 9 l284 0 10 38 c15 53 14
77 -7 95 -20 18 -78 22 -101 8 -15 -10 -3 -15 54 -23 24 -4 33 -43 11 -51 -8
-3 -192 -7 -408 -8 l-393 -1 -1 35 c-1 19 -4 43 -8 52 -13 34 12 45 99 45 45
0 85 -3 89 -7 4 -4 17 -7 29 -8 34 0 32 -19 -3 -25 -42 -7 -38 -24 6 -28 50
-5 70 4 54 23 -7 8 -10 22 -6 30 5 13 45 15 290 15 272 0 286 1 296 19 25 49
2 109 -37 97 -10 -3 -195 -7 -412 -7 -328 -2 -394 0 -402 12 -11 17 -12 86 -1
93 4 2 336 6 737 8 l730 3 5 -130 5 -130 25 0 25 0 0 130 0 130 310 3 c277 3
313 1 343 -14 17 -10 35 -14 40 -9 4 4 1 10 -7 13 -7 2 -21 14 -30 25 -9 11
-26 31 -38 43 -17 19 -20 31 -16 66 7 57 34 115 56 121 9 3 17 10 17 16 0 17
-30 13 -36 -4 -4 -8 -12 -15 -20 -15 -8 0 -14 -6 -14 -14 0 -7 -7 -20 -16 -27
-13 -11 -15 -26 -11 -71 3 -33 1 -61 -5 -64 -5 -3 -105 -6 -221 -5 -117 1
-239 -3 -272 -9 -45 -7 -62 -7 -71 3 -7 7 -14 79 -17 194 -6 180 -6 183 16
204 12 11 37 27 54 36 34 16 69 68 52 79 -5 3 -29 -15 -54 -40 -41 -42 -48
-46 -93 -46 -32 0 -54 5 -62 15 -7 8 -17 15 -22 15 -5 0 -20 12 -33 28 -21 23
-24 38 -25 94 0 78 -13 94 -34 43z m-1365 -832 c10 -10 9 -14 -2 -18 -8 -3
-200 -4 -428 -3 -309 2 -415 6 -418 15 -6 17 29 18 459 18 283 0 380 -3 389
-12z m854 6 c4 -6 5 -13 2 -15 -7 -8 -782 -18 -801 -11 -9 4 -13 13 -10 22 5
13 55 15 404 15 272 0 401 -3 405 -11z m-844 -96 c8 -8 6 -18 -7 -38 -17 -26
-17 -28 1 -41 46 -34 7 -38 -406 -42 -221 -2 -412 -1 -425 2 -37 10 -29 33 14
40 20 3 132 6 247 6 116 0 241 3 278 7 l69 6 -6 28 c-3 19 -1 31 9 36 22 13
213 9 226 -4z m-3 -201 c2 -14 -4 -29 -14 -36 -16 -12 -15 -13 5 -19 30 -8 24
-38 -9 -47 -14 -4 -206 -8 -428 -9 -365 -2 -403 -1 -408 14 -4 9 -3 20 2 25 5
5 189 12 409 16 220 3 402 8 404 10 2 2 -37 4 -88 4 -89 0 -92 1 -101 26 -6
14 -8 30 -4 35 3 6 54 8 117 7 109 -3 112 -4 115 -26z"/>
<path d="M4651 4641 c-11 -7 -13 -30 -7 -120 l6 -111 -174 0 c-209 0 -211 -1
-203 -91 3 -31 1 -62 -4 -70 -10 -18 7 -29 47 -29 40 0 47 8 29 34 -16 22 -20
73 -7 93 6 9 86 13 322 13 173 0 321 0 328 0 8 0 12 -17 12 -50 0 -40 -4 -52
-17 -56 -10 -3 -25 -10 -33 -15 -8 -5 -24 -13 -35 -18 -29 -13 -65 -66 -65
-96 0 -31 22 -29 30 3 3 11 19 37 37 56 30 35 33 36 103 36 65 0 73 -2 96 -27
14 -16 30 -40 35 -55 15 -38 29 -35 29 5 0 36 -23 61 -82 91 -37 19 -38 20
-38 78 0 95 -7 98 -201 98 l-161 0 2 108 c1 59 2 113 1 120 -1 14 -30 16 -50
3z"/>
<path d="M8969 4643 c-7 -39 5 -239 15 -245 13 -9 138 -10 160 -2 21 8 20 30
-1 38 -9 4 -35 4 -59 0 -28 -4 -44 -2 -49 7 -5 7 -9 55 -9 108 l-1 96 -27 3
c-16 2 -29 0 -29 -5z"/>
<path d="M9504 4638 c-9 -15 -5 -230 4 -240 4 -4 17 -5 30 -2 20 6 21 11 16
58 -7 62 13 99 43 80 14 -9 18 -24 18 -67 1 -61 12 -81 39 -71 15 6 17 15 12
52 -3 25 -6 55 -6 68 0 31 -31 58 -73 64 -25 4 -33 11 -36 30 -4 35 -32 52
-47 28z"/>
<path d="M9711 4602 c-13 -25 -1 -189 15 -203 19 -16 68 -7 72 13 2 12 -5 19
-22 24 -31 8 -35 46 -9 92 16 27 15 30 -3 55 -25 34 -42 40 -53 19z"/>
<path d="M9195 4558 c-4 -29 -5 -78 -3 -108 3 -47 6 -55 23 -55 17 0 20 8 23
55 5 80 -7 160 -23 160 -9 0 -16 -18 -20 -52z"/>
<path d="M12626 4584 c-10 -25 -7 -34 9 -34 8 0 15 4 15 9 0 5 3 16 6 25 4 10
1 16 -9 16 -8 0 -18 -7 -21 -16z"/>
<path d="M9376 4571 c-4 -6 -16 -11 -26 -11 -21 0 -70 -54 -70 -77 0 -8 7 -30
16 -49 15 -31 20 -34 60 -34 47 0 63 -13 44 -35 -15 -18 -44 -19 -69 -3 -23
14 -53 4 -45 -17 3 -8 12 -15 20 -15 8 0 14 -4 14 -10 0 -19 84 -10 110 11 24
21 25 25 22 123 -2 55 -6 104 -10 108 -14 13 -60 20 -66 9z m28 -57 c11 -29 6
-75 -9 -80 -8 -4 -26 -3 -40 0 -35 9 -36 68 -2 84 31 15 44 14 51 -4z"/>
<path d="M9016 4285 c-3 -8 -2 -67 1 -130 l6 -115 -32 2 c-25 2 -35 -2 -48
-24 -21 -33 -14 -43 20 -27 53 24 58 12 55 -133 l-3 -133 -49 -6 c-38 -4 -53
-1 -72 14 -49 38 -108 5 -88 -50 11 -33 52 -43 85 -20 15 11 37 13 79 10 32
-3 70 -3 85 1 l28 7 -5 147 c-3 81 -3 153 -1 160 4 9 136 12 616 12 337 0 618
4 625 8 9 6 8 17 -6 46 -18 36 -19 37 -33 17 -14 -19 -26 -20 -609 -23 l-595
-3 4 113 c4 117 -3 142 -39 142 -10 0 -20 -7 -24 -15z"/>
<path d="M10317 4243 c-25 -25 -37 -45 -37 -65 0 -38 19 -36 27 3 3 17 20 41
39 57 18 14 30 30 28 34 -9 14 -20 9 -57 -29z"/>
<path d="M10506 4271 c-3 -4 6 -13 19 -19 14 -7 25 -16 25 -22 0 -5 7 -10 15
-10 22 0 18 19 -7 41 -25 20 -44 24 -52 10z"/>
<path d="M11745 4271 c-3 -5 3 -12 14 -16 11 -3 22 -12 25 -20 7 -20 26 -19
26 0 0 8 -6 15 -14 15 -8 0 -16 7 -20 15 -6 17 -22 20 -31 6z"/>
<path d="M6383 4215 c-31 -31 -43 -65 -25 -65 5 0 18 14 31 31 12 16 33 35 47
41 30 14 31 28 2 28 -13 -1 -38 -16 -55 -35z"/>
<path d="M8887 4243 c-2 -5 11 -21 29 -36 30 -25 34 -27 34 -10 0 19 -55 59
-63 46z"/>
<path d="M11530 4218 c-28 -38 -20 -55 34 -81 35 -17 38 -21 32 -51 -4 -20 -1
-39 7 -50 13 -18 14 -18 30 4 15 21 17 21 38 6 88 -61 183 55 117 144 -29 40
-83 42 -118 5 -21 -23 -25 -24 -41 -9 -17 15 -69 11 -69 -7 0 -5 -4 -9 -10 -9
-5 0 -10 11 -10 25 0 16 6 25 15 25 8 0 15 7 15 15 0 24 -14 18 -40 -17z m215
-49 c11 -17 10 -78 -2 -90 -6 -6 -20 -8 -32 -4 -17 5 -21 14 -21 49 0 23 3 46
7 49 10 11 41 8 48 -4z"/>
<path d="M10415 4220 c-37 -14 -48 -37 -40 -78 4 -20 7 -50 6 -67 -1 -35 12
-45 61 -45 49 0 78 39 78 104 0 68 -49 108 -105 86z m49 -56 c7 -19 -1 -34
-19 -34 -18 0 -28 17 -21 35 7 20 32 19 40 -1z"/>
<path d="M4395 4211 c-3 -6 4 -15 15 -21 11 -6 20 -16 20 -22 0 -6 6 -19 14
-27 7 -9 16 -40 18 -68 4 -42 2 -54 -11 -58 -9 -2 -22 -17 -28 -33 -7 -15 -25
-33 -40 -39 -24 -9 -26 -11 -10 -18 11 -5 24 -1 36 10 17 14 48 17 255 17 217
1 237 0 250 -17 7 -10 15 -14 18 -9 3 5 -11 34 -31 66 -34 52 -38 55 -49 37
-12 -18 -24 -19 -190 -17 l-177 3 3 56 c3 44 0 57 -12 62 -9 4 -16 16 -16 27
0 20 -32 60 -49 60 -6 0 -12 -4 -16 -9z"/>
<path d="M5810 4210 c0 -5 5 -12 11 -15 5 -4 14 -18 19 -31 12 -31 30 -31 30
1 0 16 -6 25 -15 25 -8 0 -15 4 -15 9 0 5 -7 11 -15 15 -8 3 -15 1 -15 -4z"/>
<path d="M11820 4200 c0 -19 3 -21 12 -12 9 9 9 15 0 24 -9 9 -12 7 -12 -12z"/>
<path d="M8773 4190 c-13 -5 -23 -13 -24 -17 -6 -60 -4 -132 3 -145 4 -9 23
-20 41 -23 66 -13 120 32 96 78 -7 12 -12 36 -11 52 1 17 -2 36 -6 43 -11 17
-71 24 -99 12z m62 -39 c8 -14 -13 -24 -33 -16 -14 5 -14 7 -2 15 19 12 27 12
35 1z m3 -84 c4 -21 -25 -34 -40 -19 -8 8 -8 16 2 27 16 19 34 15 38 -8z"/>
<path d="M6456 4171 c-73 -80 -4 -226 83 -175 16 10 35 28 42 41 11 20 10 27
-8 51 -15 21 -18 31 -9 44 27 44 -71 80 -108 39z m72 -114 c3 -12 -3 -17 -22
-17 -25 0 -35 18 -19 34 12 12 38 2 41 -17z"/>
<path d="M7730 4170 c0 -14 7 -20 24 -20 13 0 26 -7 30 -15 6 -17 -2 -45 -14
-45 -10 0 -21 -56 -14 -75 14 -34 64 -2 64 41 0 14 9 37 20 52 10 15 22 39 26
55 l6 27 -71 0 c-64 0 -71 -2 -71 -20z"/>
<path d="M10590 4175 c0 -8 5 -15 10 -15 6 0 10 7 10 15 0 8 -4 15 -10 15 -5
0 -10 -7 -10 -15z"/>
<path d="M4262 4164 c-23 -16 -29 -48 -11 -59 5 -4 19 1 30 11 14 12 23 14 30
7 15 -15 -2 -45 -35 -63 -27 -14 -43 -50 -31 -69 3 -6 33 -11 66 -11 47 0 59
3 59 16 0 9 -9 18 -20 21 -25 7 -25 14 1 47 28 35 27 75 -1 98 -27 22 -58 23
-88 2z"/>
<path d="M4967 4160 c-46 -36 -28 -76 20 -45 18 12 28 14 36 6 7 -7 5 -12 -6
-17 -21 -8 -22 -30 -2 -38 19 -7 20 -46 1 -46 -8 0 -16 4 -18 9 -1 4 -13 12
-26 15 -30 10 -40 -18 -17 -44 24 -27 95 -27 118 -2 19 20 23 67 7 77 -5 3 -7
18 -4 33 11 58 -59 91 -109 52z"/>
<path d="M5667 4163 c-2 -4 -7 -25 -11 -45 -8 -42 3 -53 49 -53 20 0 31 -6 33
-18 5 -23 -25 -33 -46 -15 -21 19 -42 13 -42 -12 0 -43 82 -59 121 -24 35 32
20 104 -22 104 -32 0 -31 20 1 26 21 5 30 12 28 23 -2 12 -17 17 -55 19 -28 2
-53 -1 -56 -5z"/>
<path d="M7642 4082 c9 -33 -11 -41 -118 -47 -215 -12 -833 -12 -844 -1 -8 8
-23 -2 -57 -38 -44 -47 -47 -49 -112 -54 -74 -5 -67 -9 -150 88 -28 32 -30 33
-31 13 l0 -23 -215 0 c-181 0 -215 2 -215 14 0 24 -21 30 -27 8 -3 -11 -11
-23 -19 -26 -8 -3 -14 -10 -14 -15 0 -22 -49 -60 -91 -71 l-44 -11 3 -107 c4
-122 6 -132 27 -132 24 0 35 44 35 146 0 60 4 94 11 94 6 0 25 11 43 25 l33
25 261 0 c144 0 262 -3 262 -7 0 -12 51 -33 76 -33 13 0 25 -3 27 -7 3 -5 7
-66 8 -138 l4 -130 -25 -3 c-110 -14 -220 -149 -220 -271 0 -134 112 -262 243
-277 92 -11 137 1 203 54 40 32 68 65 87 102 25 50 28 63 24 136 -3 74 -6 85
-43 139 -46 70 -105 114 -152 115 -69 0 -72 7 -72 141 0 118 0 120 25 129 14
5 25 13 25 17 0 29 64 34 575 40 476 5 521 5 534 -10 14 -18 51 -23 51 -8 0 5
-8 12 -19 16 -22 7 -71 74 -71 97 0 9 -5 20 -12 24 -7 5 -9 0 -6 -14z m-1001
-484 c47 -24 82 -64 108 -123 25 -56 28 -142 6 -171 -8 -10 -15 -26 -15 -34 0
-16 -66 -85 -110 -114 -33 -22 -172 -23 -190 -1 -7 8 -18 15 -24 15 -41 0
-126 142 -126 209 0 72 83 211 125 211 7 0 18 6 25 14 23 29 141 25 201 -6z"/>
<path d="M6467 3573 c-92 -31 -156 -152 -128 -244 18 -61 53 -102 112 -133 61
-31 101 -33 154 -6 65 32 100 74 120 139 17 58 17 62 0 108 -26 69 -61 110
-113 133 -53 24 -81 24 -145 3z m143 -41 c76 -39 101 -170 48 -250 -52 -78
-166 -84 -239 -11 -38 38 -39 41 -39 110 0 71 0 72 45 116 24 25 50 43 57 41
8 -3 14 -27 16 -67 3 -61 3 -62 30 -59 25 3 27 6 30 58 3 62 8 83 20 78 4 -2
18 -9 32 -16z"/>
<path d="M10576 4050 c-24 -42 -13 -53 43 -46 25 3 247 6 493 6 l447 1 -14 32
c-10 24 -19 32 -37 30 -13 -1 -216 -6 -452 -12 -373 -9 -432 -9 -446 4 -14 13
-18 11 -34 -15z"/>
<path d="M5548 4042 c-6 -23 -7 -23 -198 -22 l-192 2 -20 -32 c-22 -37 -19
-46 11 -30 24 13 412 9 449 -4 32 -12 29 15 -7 50 -15 16 -30 36 -33 44 -3 10
-6 7 -10 -8z"/>
<path d="M10413 3973 c-9 -3 -9 -11 3 -29 36 -54 38 -54 -379 -54 -316 0 -387
-2 -403 -14 -17 -13 -19 -25 -16 -128 3 -118 10 -140 40 -122 14 10 17 27 17
102 0 49 2 92 5 95 3 3 334 9 735 13 402 4 750 8 775 8 l45 1 3 -92 c2 -81 5
-94 23 -103 10 -6 24 -8 29 -5 6 4 10 57 10 121 0 112 0 115 -24 124 -15 5
-181 7 -410 3 -362 -5 -386 -4 -392 12 -4 10 -2 27 5 38 10 16 10 21 -1 28
-14 9 -46 10 -65 2z"/>
<path d="M11660 3971 c-17 -5 -21 -9 -12 -15 8 -5 12 -43 12 -129 1 -79 6
-136 15 -162 10 -27 11 -41 4 -46 -6 -4 -59 -4 -118 -2 -72 4 -139 0 -210 -11
-65 -11 -107 -13 -115 -7 -13 11 -147 17 -196 8 -19 -4 -379 -9 -799 -11
l-764 -5 -23 -22 c-23 -22 -23 -24 -20 -191 3 -151 6 -172 23 -192 l20 -22
894 2 c491 1 897 0 902 -3 4 -2 3 -11 -4 -19 -8 -9 -16 -11 -29 -4 -9 5 -21 6
-25 2 -3 -4 -25 -7 -48 -7 -35 0 -42 -3 -42 -19 0 -13 10 -22 28 -27 42 -11
179 0 204 16 20 14 23 13 33 -5 20 -36 101 -14 87 24 -5 13 -10 14 -25 5 -15
-9 -24 -8 -46 6 -20 14 -24 20 -14 26 7 5 106 9 219 9 293 0 288 -3 289 213 0
119 -3 154 -17 180 -25 50 -41 57 -106 50 l-59 -6 3 184 c2 175 2 184 -17 186
-10 1 -30 -2 -44 -6z m70 -392 c0 -5 -15 -9 -32 -9 -31 1 -32 2 -15 15 19 14
47 10 47 -6z m-199 -139 c-1 -69 2 -137 8 -153 l11 -27 132 0 c73 0 139 4 146
9 9 6 14 44 15 139 2 99 5 132 15 132 10 0 12 -33 10 -147 l-3 -147 -34 -20
c-34 -20 -55 -20 -1180 -24 -764 -2 -1151 0 -1161 7 -12 8 -16 41 -18 165 -3
151 -3 154 20 170 20 14 112 16 919 16 494 0 906 -3 916 -7 10 -5 -29 -10 -92
-13 l-110 -5 -6 -50 c-3 -27 -3 -88 0 -135 l6 -85 150 0 150 0 3 130 c2 115 1
131 -15 143 -28 20 1 33 66 30 l54 -3 -2 -125z m256 68 c16 -19 28 -194 14
-202 -7 -5 -14 4 -17 24 -9 41 -32 51 -112 48 -58 -3 -67 -6 -70 -23 -13 -80
-32 -44 -32 61 0 44 4 84 10 90 16 15 194 18 207 2z m-399 -88 c2 -41 0 -86
-4 -100 -6 -23 -7 -23 -18 15 l-12 40 -67 3 c-77 3 -107 -9 -107 -43 0 -23
-16 -42 -27 -32 -3 3 -2 49 2 102 l7 96 112 -3 111 -3 3 -75z m340 -79 c8 -5
12 -17 10 -27 -2 -15 -14 -20 -51 -22 -49 -3 -66 10 -53 43 6 17 71 21 94 6z
m-404 -17 c11 -30 6 -34 -48 -34 -60 0 -75 10 -50 34 21 21 90 21 98 0z m6
-175 c0 -5 -7 -9 -15 -9 -15 0 -20 12 -9 23 8 8 24 -1 24 -14z"/>
<path d="M9522 3524 c-13 -9 -14 -30 -8 -133 4 -68 10 -129 12 -136 8 -20 229
-25 255 -7 17 12 19 28 19 143 0 95 -3 131 -12 134 -31 10 -252 9 -266 -1z
m220 -36 c12 -10 17 -36 20 -96 3 -46 1 -85 -4 -88 -4 -3 -8 4 -8 15 0 30 -18
36 -110 36 l-85 0 4 65 c2 36 5 68 8 73 7 12 158 8 175 -5z m-37 -178 c12 -19
-17 -40 -55 -40 -38 0 -67 21 -55 40 3 5 28 10 55 10 27 0 52 -5 55 -10z"/>
<path d="M10317 3528 c-9 -5 -11 -42 -10 -133 1 -69 4 -129 7 -134 3 -4 70 -8
148 -7 l143 1 3 129 c2 83 -1 133 -8 140 -13 13 -263 16 -283 4z m239 -36 c6
-4 14 -49 16 -99 4 -75 3 -93 -8 -93 -8 0 -14 10 -14 24 0 29 -21 36 -105 36
-64 0 -84 -10 -86 -44 -2 -40 -17 37 -18 96 -2 89 -3 88 108 88 53 0 101 -4
107 -8z m-68 -168 c12 -4 22 -13 22 -20 0 -10 -15 -14 -55 -14 -39 0 -55 4
-55 13 0 8 3 17 7 20 8 9 50 9 81 1z"/>
<path d="M10713 3533 c-19 -7 -18 -232 1 -259 13 -18 24 -19 147 -17 74 1 137
2 141 2 12 2 21 231 9 257 -10 24 -12 24 -148 23 -76 0 -144 -3 -150 -6z m255
-102 c4 -82 -2 -100 -26 -78 -10 9 -37 19 -61 23 -36 6 -52 3 -87 -17 -24 -13
-45 -30 -48 -39 -2 -8 -2 24 -1 72 1 47 6 91 10 97 4 8 41 11 108 9 l102 -3 3
-64z m-59 -114 c16 -20 3 -27 -50 -27 -49 0 -72 15 -48 31 21 13 85 11 98 -4z"/>
<path d="M9897 3523 c-4 -3 -7 -61 -7 -128 0 -99 3 -125 16 -136 19 -15 252
-24 273 -10 10 7 15 40 18 122 7 172 19 159 -151 159 -78 0 -146 -3 -149 -7z
m251 -35 c14 -14 15 -142 2 -173 -9 -20 -9 -20 -9 1 -1 32 -21 44 -77 44 -78
0 -115 -10 -124 -34 -6 -14 -9 5 -9 61 -1 108 4 113 118 113 54 0 91 -4 99
-12z m-50 -185 c-4 -22 -82 -31 -104 -12 -23 19 -6 29 52 29 47 0 55 -3 52
-17z"/>
<path d="M8775 3940 c-3 -6 1 -13 9 -16 11 -4 16 -19 16 -44 0 -47 8 -70 25
-70 22 0 32 23 38 83 l6 57 -44 0 c-24 0 -47 -5 -50 -10z"/>
<path d="M5011 3921 c-11 -7 -13 -38 -9 -155 5 -146 13 -176 44 -176 17 0 16
-4 16 185 0 138 -2 150 -19 153 -10 1 -24 -2 -32 -7z"/>
<path d="M4278 3915 c-2 -3 -1 -28 3 -57 4 -29 8 -79 8 -110 1 -78 26 -130 46
-97 4 5 8 68 8 140 l2 129 -31 0 c-17 0 -33 -2 -36 -5z"/>
<path d="M12483 3774 c-20 -9 -15 -59 7 -79 41 -37 102 17 73 64 -10 16 -57
25 -80 15z"/>
<path d="M2635 3670 c-8 -13 20 -24 41 -16 20 8 9 26 -16 26 -10 0 -22 -5 -25
-10z"/>
<path d="M2423 3657 c49 -7 72 -6 80 2 8 8 -10 11 -68 10 l-80 -2 68 -10z"/>
<path d="M3480 3640 c-8 -5 -27 -11 -42 -15 -44 -9 -140 -111 -160 -171 -19
-55 -24 -133 -9 -162 4 -9 19 -39 32 -66 64 -130 232 -188 354 -121 94 50 146
121 160 216 7 46 -8 158 -23 168 -4 3 -17 21 -28 39 -24 38 -109 102 -135 102
-10 0 -21 5 -24 10 -8 12 -104 12 -125 0z m140 -49 c68 -32 91 -51 128 -112
18 -30 22 -51 22 -118 0 -69 -4 -87 -25 -121 -50 -79 -120 -120 -205 -120 -66
0 -114 23 -171 81 -41 43 -48 56 -54 104 -4 30 -4 79 -1 109 6 45 14 62 57
109 37 42 62 60 97 71 51 16 113 15 152 -3z"/>
<path d="M3460 3545 c-7 -8 -18 -15 -24 -15 -13 0 -44 -33 -69 -73 -13 -19
-18 -49 -19 -95 0 -78 21 -124 80 -168 32 -25 45 -29 112 -29 68 0 79 3 114
30 62 47 86 94 86 167 -1 74 -29 124 -95 170 -34 23 -51 27 -106 28 -47 0 -70
-4 -79 -15z m62 -83 c3 -49 6 -57 23 -57 17 0 20 8 23 53 2 35 8 55 18 59 21
8 81 -42 101 -85 18 -37 22 -120 6 -131 -4 -3 -14 -18 -22 -33 -8 -16 -17 -28
-21 -28 -4 0 -17 -9 -30 -20 -53 -46 -178 -13 -216 58 -27 51 -26 140 4 172
12 13 22 27 22 31 0 12 63 47 76 42 8 -3 14 -27 16 -61z"/>
<path d="M5611 3624 c-76 -41 -116 -90 -146 -176 -44 -128 25 -266 169 -336
36 -18 77 -32 92 -32 33 0 133 29 152 44 54 42 111 108 117 135 3 17 11 33 16
36 11 8 12 129 0 153 -4 9 -17 35 -27 56 -24 50 -75 100 -128 126 -63 30 -185
27 -245 -6z m199 -19 c7 -8 20 -15 29 -15 43 -1 111 -89 132 -169 16 -65 0
-137 -45 -197 -50 -67 -96 -88 -191 -87 -73 0 -84 3 -126 31 -25 17 -59 51
-74 74 -27 39 -29 51 -29 130 1 76 4 92 26 125 28 42 63 73 118 103 44 24 142
27 160 5z"/>
<path d="M5665 3563 c-32 -9 -83 -52 -104 -89 -26 -44 -30 -174 -6 -194 8 -7
15 -18 15 -25 0 -7 24 -29 54 -49 48 -32 62 -36 116 -36 52 0 68 5 111 32 27
18 49 37 49 42 0 5 7 18 16 27 12 14 17 39 17 98 1 71 -2 83 -26 114 -46 61
-81 79 -156 83 -36 1 -75 0 -86 -3z m40 -93 c0 -52 1 -55 25 -55 23 0 25 4 30
55 4 47 8 55 27 58 31 4 100 -69 109 -115 10 -51 -1 -109 -25 -134 -12 -13
-21 -26 -21 -29 0 -4 -19 -16 -43 -28 -141 -70 -295 103 -209 236 26 42 65 72
87 69 17 -2 20 -9 20 -57z"/>
<path d="M4225 3623 c-52 -14 -152 -110 -162 -156 -3 -15 -10 -30 -14 -33 -18
-11 -10 -148 11 -192 22 -45 104 -132 125 -132 8 0 21 -8 31 -17 13 -14 35
-17 98 -18 90 0 147 20 201 72 50 48 103 178 92 225 -3 12 -11 44 -17 69 -13
54 -64 119 -124 156 -34 22 -54 26 -131 29 -49 2 -99 0 -110 -3z m196 -49 c8
-8 20 -14 26 -14 13 0 76 -69 94 -102 7 -13 13 -57 12 -104 0 -87 -13 -122
-69 -177 -121 -122 -335 -65 -392 104 -44 130 42 280 178 309 46 10 131 1 151
-16z"/>
<path d="M4245 3542 c-96 -54 -118 -90 -119 -193 -1 -71 1 -77 33 -118 38 -48
130 -95 171 -88 78 15 127 47 166 109 44 69 27 198 -32 249 -70 59 -158 75
-219 41z m190 -66 c51 -54 65 -129 35 -188 -39 -77 -114 -113 -190 -91 -55 16
-69 27 -98 74 -34 55 -30 125 8 178 31 43 72 66 98 56 10 -4 12 -17 8 -53 -7
-53 3 -76 30 -70 15 3 20 14 22 58 4 81 6 84 44 64 18 -9 37 -22 43 -28z"/>
<path d="M12500 3623 c-202 -4 -190 9 -190 -208 0 -163 7 -209 32 -216 7 -2
92 -3 189 -1 l176 3 13 27 c8 18 12 74 11 172 -2 147 -14 220 -37 220 -7 0
-18 1 -26 3 -7 1 -83 1 -168 0z m178 -61 c2 -13 0 -31 -4 -40 -6 -14 -8 -13
-13 8 -7 25 -7 25 -143 28 -123 2 -136 1 -139 -15 -2 -10 -2 -74 1 -143 l5
-125 133 -3 c72 -1 133 1 133 5 1 4 3 37 5 72 1 34 5 70 9 78 5 14 7 14 23 0
27 -25 28 -131 1 -169 l-21 -28 -156 2 -157 3 -3 164 c-2 114 1 168 9 177 9
12 43 14 163 12 149 -3 151 -3 154 -26z m-64 -40 c8 -14 11 -151 2 -159 -4 -4
-11 -2 -15 6 -9 14 -140 19 -160 6 -7 -4 -9 -16 -5 -27 4 -15 2 -19 -7 -16
-10 3 -15 27 -17 79 -5 122 -8 119 103 119 51 0 96 -4 99 -8z m-44 -182 c12
-7 12 -12 -4 -28 -25 -29 -81 -27 -94 3 -6 13 -8 26 -5 29 10 9 86 7 103 -4z"/>
<path d="M7520 3578 c-107 -5 -258 -10 -336 -11 -103 -2 -145 -6 -157 -16 -15
-12 -17 -38 -17 -195 l1 -181 25 -18 c23 -18 58 -18 717 -13 381 3 741 7 801
9 119 4 120 3 120 -60 0 -18 1 -33 2 -33 1 0 20 7 43 14 35 13 44 13 68 1 39
-21 77 -20 69 1 -3 9 -9 27 -12 40 -7 28 -12 29 -35 8 -16 -14 -18 -14 -29 6
-7 13 -17 19 -27 16 -20 -8 -64 4 -57 15 3 5 44 9 92 9 64 0 83 3 75 11 -8 8
-113 11 -360 10 -191 -1 -364 -3 -383 -6 -19 -2 -260 -6 -535 -10 l-500 -7
-23 25 c-22 23 -22 30 -20 178 l3 154 165 5 c190 6 428 -2 390 -13 -14 -4 -50
-8 -80 -9 l-55 -3 -3 -137 c-2 -89 1 -138 8 -139 48 -6 279 -3 293 3 15 8 17
25 17 135 0 139 -5 152 -64 153 -23 0 -27 3 -18 12 15 15 30 15 725 23 477 6
557 5 557 -7 0 -12 -27 -15 -142 -17 -78 -1 -145 -5 -148 -7 -7 -7 -1 -274 6
-285 3 -5 63 -9 133 -9 107 0 131 3 142 16 10 12 16 56 19 137 3 84 9 122 18
125 9 3 12 -31 12 -148 l0 -151 -30 -10 c-33 -12 -31 -29 4 -29 49 0 56 24 56
189 0 157 -6 183 -50 218 -18 15 -1165 15 -1480 1z m1408 -95 c16 -15 21 -33
24 -101 5 -88 -3 -112 -21 -62 l-10 31 -83 -3 c-76 -3 -83 -5 -88 -26 -3 -13
-9 -24 -15 -25 -12 -2 -19 113 -10 160 l6 32 82 4 c45 1 85 4 88 5 4 1 16 -6
27 -15z m-1196 -72 c7 -64 2 -85 -21 -75 -9 5 -45 10 -79 12 -56 3 -67 1 -88
-19 -13 -12 -23 -29 -22 -38 2 -8 -5 -17 -15 -19 -17 -4 -18 2 -12 90 4 51 10
97 12 101 3 4 53 6 111 5 l107 -3 7 -54z m1153 -121 c0 -23 -4 -25 -48 -28
-49 -3 -66 10 -53 44 4 11 18 14 53 12 44 -3 48 -5 48 -28z m-1204 1 c21 -17
22 -20 8 -26 -25 -10 -122 -1 -126 11 -5 14 34 32 68 33 15 1 37 -8 50 -18z"/>
<path d="M4851 3534 l-31 -26 0 -152 c0 -165 8 -199 54 -230 43 -28 365 -3
366 28 1 24 2 323 1 349 -1 16 -7 27 -15 27 -7 0 -19 7 -26 15 -10 12 -42 15
-165 15 -150 0 -154 -1 -184 -26z m340 -31 c15 -15 18 -40 19 -153 1 -74 2
-143 1 -153 -2 -32 -66 -50 -186 -54 -60 -1 -115 1 -120 5 -6 4 -21 20 -33 36
-20 26 -22 40 -22 161 l0 132 33 28 32 27 129 -6 c106 -4 133 -9 147 -23z"/>
<path d="M4907 3472 c-26 -27 -27 -33 -27 -129 0 -145 -1 -145 165 -141 l130
3 3 130 c4 166 4 165 -142 165 -99 0 -103 -1 -129 -28z m237 -38 c9 -22 6
-145 -3 -169 -8 -17 -10 -16 -18 15 l-9 35 -68 3 c-58 3 -71 0 -87 -17 -11
-11 -19 -25 -19 -30 0 -5 -4 -12 -8 -15 -15 -9 -8 159 7 177 19 24 196 25 205
1z m-56 -176 c3 -26 1 -28 -37 -28 -49 0 -71 8 -71 26 0 20 31 34 70 31 30 -2
35 -6 38 -29z"/>
<path d="M7901 3524 c-20 -14 -21 -24 -21 -149 0 -89 4 -136 11 -141 10 -6
280 -7 286 0 8 8 6 276 -2 284 -5 5 -64 12 -131 15 -98 5 -125 3 -143 -9z
m235 -58 c13 -18 18 -137 7 -171 -5 -17 -8 -15 -18 15 -11 34 -13 35 -70 38
-81 4 -104 -3 -119 -39 -11 -27 -14 -28 -18 -12 -3 11 -3 54 0 97 6 92 5 91
123 90 65 -1 85 -5 95 -18z m-48 -183 c3 -21 0 -23 -52 -23 -57 0 -70 7 -60
35 5 12 18 15 58 13 44 -3 51 -6 54 -25z"/>
<path d="M8295 3520 c-8 -13 -8 -251 1 -273 5 -15 23 -17 139 -17 109 0 137 3
150 16 13 13 15 38 13 147 l-3 132 -147 3 c-92 2 -149 -1 -153 -8z m254 -43
c13 -16 18 -183 6 -178 -6 3 -18 15 -28 28 -16 20 -27 23 -93 23 -70 0 -74 -1
-74 -22 0 -13 -4 -30 -10 -38 -15 -25 -21 8 -18 106 l3 89 35 5 c55 8 168 0
179 -13z m-75 -163 c9 -3 16 -14 16 -24 0 -21 -19 -30 -61 -30 -31 0 -45 19
-35 45 5 15 51 20 80 9z"/>
<path d="M7075 3500 c-11 -18 -5 -264 6 -271 6 -3 72 -6 147 -5 l137 1 7 95
c4 52 4 115 0 140 l-7 45 -142 3 c-94 2 -144 -1 -148 -8z m256 -42 c9 -29 3
-188 -6 -188 -5 0 -11 11 -13 25 -4 34 -38 55 -89 55 -62 0 -91 -17 -95 -54
-2 -17 -7 -30 -13 -29 -10 3 -20 166 -11 190 7 18 222 19 227 1z m-57 -168
c18 -18 -15 -40 -61 -40 -47 0 -65 18 -43 44 12 16 87 12 104 -4z"/>
<path d="M2097 3453 c18 -2 50 -2 70 0 21 2 7 4 -32 4 -38 0 -55 -2 -38 -4z"/>
<path d="M2845 3301 c-3 -6 -4 -11 0 -11 3 0 1 -8 -4 -19 -8 -15 -27 -19 -98
-25 -169 -12 -1600 -19 -1607 -8 -8 14 24 32 61 33 19 1 14 4 -17 9 -71 11
-80 5 -80 -51 0 -32 4 -49 13 -50 6 -1 143 -2 304 -3 214 -1 295 -4 304 -13
10 -10 8 -14 -7 -19 -57 -18 -58 -23 0 -23 48 -1 57 1 47 13 -6 7 -9 21 -5 29
5 14 35 17 222 19 225 3 271 -4 258 -38 -4 -10 2 -14 19 -14 17 0 29 9 40 30
l16 30 187 2 c103 2 228 1 278 0 97 -4 106 0 117 49 5 19 1 31 -17 48 -15 14
-26 19 -31 12z"/>
<path d="M12704 3145 c-4 -8 -11 -12 -18 -7 -13 8 -83 12 -108 5 -18 -4 -23
-28 -12 -57 7 -18 39 -22 49 -6 3 6 17 10 29 10 13 0 29 7 36 15 9 11 16 13
24 5 23 -23 52 2 40 35 -8 19 -33 19 -40 0z"/>
<path d="M8908 3129 c-49 -27 -50 -49 -2 -49 20 0 52 -8 71 -17 42 -19 66 -9
71 29 4 31 -12 44 -63 51 -30 5 -50 1 -77 -14z"/>
<path d="M1117 3128 c-14 -10 -18 -24 -15 -58 l3 -45 302 -5 c166 -3 304 -8
308 -11 13 -14 -62 -29 -143 -29 -47 0 -83 -2 -81 -5 9 -8 654 -13 674 -5 12
5 -66 9 -186 9 -165 1 -209 4 -218 15 -7 9 -8 17 -2 20 13 9 435 15 473 7 36
-7 51 -31 20 -31 -27 0 -52 -10 -52 -21 0 -5 44 -10 98 -10 53 -1 111 -5 127
-9 l30 -7 -35 -7 c-47 -9 -1266 -3 -1276 7 -4 4 1 14 12 22 26 20 0 19 -31 -1
-26 -17 -34 -59 -12 -66 6 -2 401 0 877 5 608 6 868 11 878 19 7 6 12 22 10
36 l-3 25 -280 -2 c-157 -1 -286 3 -294 8 -8 5 -11 16 -8 24 7 18 253 32 444
25 144 -6 156 -1 151 57 -3 35 -6 40 -30 43 -30 4 -36 -6 -16 -26 27 -27 -22
-32 -337 -32 -176 0 -552 -3 -835 -6 -517 -6 -563 -3 -532 28 8 8 84 14 264
18 l253 7 -186 1 c-102 1 -219 5 -260 8 -55 4 -79 2 -92 -8z"/>
<path d="M12410 3120 c-17 -33 4 -52 54 -48 38 3 41 5 41 33 0 28 -3 30 -42
33 -34 3 -44 -1 -53 -18z"/>
<path d="M1833 3123 c26 -2 68 -2 95 0 26 2 4 3 -48 3 -52 0 -74 -1 -47 -3z"/>
<path d="M6684 3091 c-9 -9 -3 -49 9 -59 7 -6 47 -11 90 -11 73 0 77 1 83 24
11 45 3 50 -90 50 -48 0 -89 -2 -92 -4z"/>
<path d="M5376 3083 c-3 -4 -52 -6 -107 -5 -55 1 -104 0 -109 -3 -14 -9 0 -35
19 -35 9 0 22 -5 27 -10 16 -16 174 -24 207 -11 46 18 33 71 -17 71 -7 0 -16
-3 -20 -7z"/>
<path d="M5522 3083 c-29 -6 -39 -28 -22 -49 20 -23 124 -16 128 10 2 10 0 22
-5 26 -11 10 -73 18 -101 13z"/>
<path d="M5889 3078 c-24 -9 -25 -27 -1 -34 9 -3 26 -10 37 -16 26 -15 63 -19
98 -12 20 4 27 11 27 29 0 13 -5 27 -11 31 -15 9 -126 11 -150 2z"/>
<path d="M6220 3063 c0 -49 9 -53 100 -49 88 4 110 -3 110 -34 0 -43 105 -66
168 -37 17 8 29 8 43 -1 40 -26 89 18 52 46 -13 10 -37 11 -88 7 -44 -4 -87
-2 -114 5 -40 11 -43 13 -38 39 6 26 3 29 -31 35 -57 9 -97 7 -110 -6 -9 -9
-16 -8 -30 5 -10 9 -28 17 -40 17 -17 0 -22 -6 -22 -27z"/>
<path d="M4510 3065 c-24 -29 -4 -42 77 -52 80 -11 113 -4 113 21 0 25 -28 36
-103 41 -58 3 -78 1 -87 -10z"/>
<path d="M4826 3073 c-10 -10 -7 -71 4 -78 5 -3 23 1 40 10 31 16 112 13 135
-5 14 -11 58 27 52 44 -3 9 -15 12 -31 9 -15 -3 -26 -1 -26 5 0 8 -21 9 -63 5
-39 -3 -72 -1 -84 5 -11 6 -23 8 -27 5z"/>
<path d="M5085 3060 c-8 -24 1 -40 21 -40 9 0 14 11 14 30 0 35 -25 42 -35 10z"/>
<path d="M3204 3045 c-11 -27 3 -43 30 -38 15 3 26 1 26 -6 0 -14 106 -15 115
-1 4 6 -1 22 -9 35 -15 23 -23 25 -87 25 -53 0 -71 -4 -75 -15z"/>
<path d="M3674 3045 c-8 -21 4 -35 31 -35 13 0 27 -4 30 -10 8 -13 122 -13
130 0 3 5 3 21 -1 35 -6 24 -8 25 -95 25 -69 0 -91 -3 -95 -15z"/>
<path d="M4006 3045 c-11 -29 5 -46 34 -40 17 4 37 1 49 -7 17 -10 25 -10 40
-1 15 10 22 9 31 -2 9 -11 7 -16 -9 -25 -12 -6 -21 -20 -21 -30 0 -20 25 -26
92 -22 15 1 30 -3 33 -8 9 -15 77 -11 100 5 20 16 79 12 102 -7 19 -15 43 -2
43 22 0 32 -19 62 -33 53 -11 -7 -57 -14 -170 -26 -21 -2 -40 0 -43 5 -4 6
-21 16 -39 24 -26 11 -32 18 -28 37 6 30 -14 37 -108 37 -50 0 -68 -4 -73 -15z"/>
<path d="M10787 3054 c-4 -4 -7 -19 -7 -34 l0 -27 124 -2 c132 -2 142 2 125
47 -9 23 -12 23 -81 18 -40 -2 -77 -5 -83 -6 -5 -1 -24 1 -40 5 -17 3 -33 3
-38 -1z"/>
<path d="M11900 3050 c-7 -4 -21 -5 -31 -3 -11 3 -25 0 -33 -6 -10 -8 -16 -9
-21 -1 -10 16 -32 12 -38 -9 -8 -33 8 -42 94 -48 69 -5 87 -3 97 10 26 32 -32
79 -68 57z"/>
<path d="M10040 3043 c-13 -3 -29 -12 -35 -20 -10 -13 -13 -13 -24 1 -19 22
-31 11 -31 -29 0 -21 6 -35 16 -39 24 -9 29 -8 58 19 26 24 28 24 52 9 17 -11
37 -15 64 -11 22 3 43 1 46 -4 3 -5 30 -9 60 -9 41 0 54 4 54 15 0 8 -9 19
-20 25 -11 6 -20 16 -20 23 0 10 -18 13 -65 11 -36 -1 -68 2 -71 7 -5 9 -40
10 -84 2z"/>
<path d="M10515 3040 c-3 -5 -17 -10 -30 -10 -13 0 -28 -8 -34 -17 -8 -14 -12
-15 -25 -4 -12 10 -20 11 -29 2 -10 -8 -17 -7 -25 1 -18 18 -27 1 -14 -27 9
-20 19 -25 50 -25 22 0 54 5 72 11 25 9 49 9 101 -1 64 -12 70 -12 90 6 11 10
28 19 37 19 11 0 18 10 20 28 4 30 16 29 -125 13 -23 -3 -45 -1 -48 4 -8 13
-32 13 -40 0z"/>
<path d="M11299 3038 c-47 -7 -99 -24 -99 -33 0 -15 62 -27 127 -26 43 1 81
-4 92 -11 26 -16 33 -7 35 39 l1 37 -56 1 c-31 0 -76 -3 -100 -7z"/>
<path d="M11575 3040 c-4 -6 0 -21 9 -34 11 -18 24 -23 53 -23 21 1 55 -2 75
-6 32 -7 37 -5 43 13 4 14 1 28 -11 41 -18 20 -54 26 -54 9 0 -5 -7 -10 -15
-10 -8 0 -15 5 -15 10 0 13 -77 13 -85 0z"/>
<path d="M8446 3033 c-4 -5 -20 -8 -34 -8 -21 0 -28 -6 -30 -23 -4 -23 -4 -23
-23 -6 -17 16 -22 16 -29 4 -12 -18 -12 -22 -1 -39 6 -9 15 -11 27 -6 11 4 34
7 51 6 18 -2 48 3 66 10 29 10 38 10 58 -4 27 -19 65 -22 74 -6 4 5 4 21 1 35
-6 21 -12 24 -51 24 -24 0 -47 5 -50 10 -7 12 -48 13 -59 3z"/>
<path d="M9517 3029 c-22 -13 -22 -56 1 -66 9 -5 78 -7 152 -6 74 2 147 3 163
3 23 0 27 4 27 30 0 21 -5 30 -17 31 -55 4 -103 0 -122 -11 -17 -9 -26 -9 -38
2 -8 7 -34 14 -57 15 -22 1 -52 4 -66 7 -14 2 -33 0 -43 -5z"/>
<path d="M7297 3015 c-21 -11 -48 -13 -105 -9 -60 5 -81 3 -97 -9 -18 -14 -18
-17 -5 -31 11 -10 40 -15 100 -17 l85 -2 3 27 3 27 30 -26 c40 -33 77 -33 85
0 3 14 4 32 0 40 -7 19 -62 20 -99 0z"/>
<path d="M7705 3018 c-38 -5 -100 -6 -138 -3 -73 7 -89 -4 -67 -44 10 -19 17
-20 105 -15 60 4 112 2 145 -6 45 -11 54 -10 68 4 15 14 14 18 -13 44 -29 27
-32 27 -100 20z"/>
<path d="M7931 3017 c-17 -17 -13 -45 8 -57 11 -5 47 -10 81 -10 55 0 61 2 72
25 7 16 8 29 2 34 -14 14 -151 20 -163 8z"/>
<path d="M8123 3023 c-34 -13 -1 -76 35 -67 28 8 30 49 3 64 -11 5 -21 10 -23
9 -2 0 -9 -3 -15 -6z"/>
<path d="M8720 3000 c0 -30 30 -57 50 -45 16 10 11 41 -8 58 -28 25 -42 21
-42 -13z"/>
<path d="M8931 3021 c-7 -5 -22 -6 -32 -4 -11 3 -25 0 -33 -6 -10 -8 -16 -9
-21 -1 -11 18 -35 11 -35 -10 0 -13 10 -24 26 -30 35 -14 121 -12 147 2 12 7
32 11 45 9 16 -2 22 3 22 18 0 18 -6 21 -39 21 -22 0 -45 2 -53 5 -7 3 -19 1
-27 -4z"/>
<path d="M12608 3023 c-43 -4 -48 -7 -48 -29 0 -31 24 -41 56 -23 19 10 32 10
54 2 32 -12 40 -8 40 18 0 18 -30 41 -47 37 -4 -1 -29 -3 -55 -5z"/>
<path d="M12414 3005 c-10 -26 4 -45 34 -45 32 0 52 16 52 42 0 14 -8 18 -40
18 -27 0 -43 -5 -46 -15z"/>
<path d="M5070 2979 c-30 -5 -73 -6 -96 -3 -44 6 -71 -13 -60 -42 5 -14 16
-16 59 -11 36 5 61 2 79 -7 23 -12 29 -12 39 1 9 10 28 14 58 12 66 -2 71 -1
71 20 0 38 -40 46 -150 30z"/>
<path d="M12412 2918 c-14 -14 -15 -37 -3 -56 6 -10 13 -11 34 -1 23 10 30 9
47 -6 18 -16 26 -17 53 -7 18 6 69 11 115 10 46 0 88 4 94 10 16 16 1 62 -21
62 -10 0 -21 -3 -25 -7 -4 -5 -17 -9 -29 -10 -84 -6 -139 -18 -144 -29 -3 -8
-11 -14 -19 -14 -17 0 -19 27 -1 33 6 2 8 8 4 13 -4 5 -12 2 -16 -5 -7 -11
-13 -11 -32 3 -28 19 -41 20 -57 4z"/>
<path d="M11470 2903 c-216 -2 -368 -7 -374 -13 -6 -6 -3 -16 8 -29 19 -20 55
-21 396 -6 52 2 155 4 228 4 112 1 134 3 139 17 5 14 -14 37 -27 31 -3 -1
-169 -3 -370 -4z"/>
<path d="M10433 2888 c-6 -10 -100 -13 -468 -13 -453 0 -460 0 -460 -20 0 -20
6 -20 456 -17 409 3 457 2 462 -12 7 -18 71 -17 120 3 15 6 27 7 27 3 0 -4 54
-8 119 -9 l119 -2 11 31 c6 17 8 34 5 39 -7 12 -61 11 -69 -1 -3 -5 -11 -7
-19 -4 -13 5 -75 -7 -108 -21 -13 -5 -18 -2 -18 9 0 9 -7 16 -15 16 -8 0 -15
-9 -15 -20 0 -11 -4 -20 -10 -20 -5 0 -10 6 -10 14 0 28 -27 39 -60 26 -23
-10 -33 -10 -44 -1 -11 9 -16 9 -23 -1z"/>
<path d="M10847 2894 c-3 -3 -4 -12 -1 -20 15 -50 13 -48 32 -30 13 11 21 13
29 5 12 -12 135 -15 152 -5 8 5 5 15 -6 31 -20 27 -42 31 -62 13 -11 -10 -14
-10 -18 0 -5 12 -114 18 -126 6z"/>
<path d="M7266 2867 c-11 -8 -17 -23 -14 -38 3 -23 6 -24 85 -25 46 0 86 -3
90 -7 14 -15 33 -6 39 18 7 30 5 29 52 9 32 -14 91 -16 472 -15 239 0 543 4
675 8 132 3 264 7 294 7 39 1 57 6 64 18 6 9 8 20 5 23 -7 7 -740 7 -761 0 -7
-2 -128 -6 -270 -9 -142 -3 -262 -8 -268 -12 -6 -3 -18 1 -27 9 -20 18 -216
22 -273 5 -27 -8 -46 -6 -82 6 -57 19 -59 19 -81 3z"/>
<path d="M2323 2863 c-146 -2 -253 -7 -253 -13 0 -5 152 -9 371 -10 359 0 475
-8 319 -21 -79 -7 -355 -5 -1095 7 -247 5 -475 8 -505 8 -48 1 -55 -2 -58 -20
-2 -11 5 -30 15 -42 18 -21 21 -21 178 -12 137 7 1021 20 1457 20 l138 0 6 25
c4 18 1 32 -11 45 -17 18 -30 20 -164 18 -80 -2 -260 -4 -398 -5z"/>
<path d="M6938 2859 c-20 -11 -25 -64 -7 -74 5 -4 24 -1 40 5 34 15 152 18
191 6 22 -6 27 -4 33 13 3 12 3 30 0 41 -5 17 -15 20 -71 20 -35 0 -73 -5 -83
-12 -15 -9 -25 -9 -46 0 -31 14 -35 14 -57 1z"/>
<path d="M4424 2835 c-22 -17 -60 -20 -69 -5 -9 15 -45 12 -51 -4 -4 -11 -27
-12 -116 -8 -113 5 -134 -1 -121 -35 4 -11 36 -13 152 -12 80 1 151 1 156 -1
15 -6 55 10 55 21 0 15 28 10 70 -11 l39 -20 12 21 c8 16 8 28 0 45 -9 20 -18
24 -59 24 -27 0 -57 -6 -68 -15z"/>
<path d="M4617 2843 c-12 -11 -8 -60 6 -71 9 -8 31 -9 68 -3 32 6 58 6 64 0
10 -10 56 -12 79 -3 9 3 16 17 16 29 0 37 -42 69 -63 48 -10 -9 -108 -10 -114
-1 -5 10 -47 10 -56 1z"/>
<path d="M4892 2841 c-16 -10 -12 -63 4 -68 6 -2 14 6 18 19 6 21 8 21 19 7
14 -18 113 -43 129 -33 6 4 36 6 67 6 31 0 84 2 119 5 50 4 62 9 62 23 0 40
-22 44 -227 38 -121 -3 -128 -3 -153 4 -14 4 -31 3 -38 -1z"/>
<path d="M6092 2843 l-593 -3 3 -28 3 -27 145 1 c877 9 1232 18 1237 32 10 24
-19 32 -112 29 -49 -1 -357 -3 -683 -4z"/>
<path d="M3284 2828 c-3 -5 -32 -8 -65 -7 -64 2 -83 -7 -77 -37 2 -14 11 -18
31 -16 15 2 27 -1 27 -6 0 -5 27 -10 59 -10 l59 -1 7 36 6 36 20 -32 c22 -37
44 -48 63 -32 7 6 29 10 47 9 32 -3 34 -1 37 34 l3 36 -106 -1 c-59 -1 -109
-5 -111 -9z"/>
<path d="M3614 2829 c-4 -7 -21 -9 -40 -6 -39 7 -38 7 -21 -36 12 -27 19 -32
48 -31 19 0 43 5 53 9 13 6 21 4 24 -3 5 -15 89 -16 98 -1 5 8 29 10 75 6 l69
-6 0 34 c0 29 -4 36 -25 41 -14 4 -52 -1 -84 -10 -71 -20 -105 -20 -121 -1
-14 17 -66 20 -76 4z"/>
<path d="M12010 2678 c-80 -5 -498 -11 -930 -14 -1258 -8 -1437 -10 -1580 -19
-86 -5 -168 -3 -225 4 -65 7 -117 8 -185 0 -81 -9 -1361 -21 -1855 -17 -220 2
-625 -4 -800 -11 -88 -4 -175 -3 -194 2 -41 10 -222 4 -346 -13 -70 -9 -125
-9 -247 0 -86 7 -162 9 -169 5 -6 -5 -410 -9 -898 -11 -487 -1 -1208 -6 -1601
-9 -819 -8 -970 -8 -1095 -4 -49 2 -141 -3 -204 -10 -92 -12 -141 -12 -260 -3
-200 16 -272 16 -299 -4 -21 -15 -22 -20 -22 -202 0 -103 4 -304 10 -447 5
-143 11 -531 13 -862 l2 -603 28 -27 27 -28 228 1 c125 1 238 2 252 2 14 0
124 -2 245 -4 194 -5 224 -3 252 12 30 16 34 16 68 0 31 -15 64 -17 240 -14
175 3 206 5 222 20 18 17 20 17 44 0 21 -15 51 -17 230 -17 159 0 212 3 232
14 23 12 31 12 54 0 36 -19 444 -21 451 -1 5 15 44 16 59 1 7 -7 83 -10 219
-10 179 1 214 3 242 18 31 17 34 17 66 -1 31 -16 53 -18 218 -13 119 3 199 9
228 19 39 12 52 12 94 0 39 -11 88 -13 240 -7 221 7 214 7 491 3 175 -2 215 0
241 13 27 14 34 14 50 2 16 -12 63 -13 259 -9 132 2 249 4 260 4 11 0 122 -1
246 -2 203 -1 227 1 243 17 17 17 19 17 52 -3 31 -20 45 -21 245 -18 159 2
213 6 217 16 5 17 33 15 71 -4 48 -24 404 -17 441 9 30 21 56 21 94 2 22 -12
67 -15 197 -15 145 0 176 3 223 20 l54 21 47 -22 c43 -20 56 -21 203 -16 97 3
179 11 215 21 41 11 64 13 77 6 11 -6 108 -10 232 -10 165 0 219 3 241 14 23
13 31 13 55 0 21 -11 73 -14 231 -14 192 0 206 1 239 22 34 21 36 21 66 4 25
-15 63 -19 219 -22 180 -4 190 -4 233 18 37 18 48 20 62 10 43 -30 71 -34 262
-30 166 3 199 6 221 21 26 17 27 17 45 0 16 -16 38 -18 225 -17 124 0 213 5
221 11 34 27 74 31 113 12 33 -16 62 -19 204 -19 140 0 175 3 219 19 40 15 60
17 78 10 14 -5 126 -9 249 -9 241 0 254 3 256 53 6 194 -5 2115 -12 2129 -9
17 -27 18 -252 16 -133 -1 -307 -5 -387 -10z m-1166 -57 c3 -4 9 -294 12 -642
5 -447 10 -636 18 -642 6 -5 43 -6 83 -3 40 3 74 2 77 -3 3 -5 8 -184 10 -399
l5 -390 -24 -16 c-20 -13 -58 -16 -218 -16 -177 0 -195 2 -211 19 -14 15 -18
44 -22 147 -2 71 -6 163 -9 204 -3 62 -10 1689 -6 1727 1 9 33 13 109 16 59 1
121 4 139 5 17 1 34 -2 37 -7z m634 -637 l2 -642 22 -5 c12 -4 32 -4 44 -1 12
3 25 1 29 -5 3 -6 8 -176 10 -378 3 -307 1 -371 -11 -395 -8 -16 -23 -28 -34
-28 -10 0 -22 -4 -25 -10 -10 -16 -383 -13 -399 3 -10 10 -14 105 -17 412 l-4
400 40 0 40 0 0 635 c0 349 3 640 7 646 5 7 57 11 150 10 l143 -1 3 -641z
m622 209 c0 -241 3 -706 7 -1033 5 -554 5 -597 -11 -613 -15 -15 -43 -17 -231
-17 -143 0 -216 4 -221 11 -3 6 -8 188 -10 406 l-4 395 72 -2 c40 -1 80 -2 89
-1 14 1 15 62 11 630 -3 346 -2 637 1 645 5 14 29 16 152 16 l145 0 0 -437z
m509 425 c0 -7 2 -478 5 -1045 3 -568 2 -1033 -2 -1033 -69 -4 -433 -2 -437 2
-9 8 -12 226 -21 1201 l-7 887 231 0 c179 0 232 -3 231 -12z m-2718 -20 c5 -7
9 -213 10 -458 2 -557 6 -797 14 -810 3 -5 17 -10 30 -10 13 0 26 -4 30 -10 8
-13 9 -753 0 -779 -6 -20 -12 -21 -223 -21 -200 0 -218 1 -229 18 -8 13 -12
135 -14 403 l-3 384 63 0 c50 0 64 4 72 18 6 10 8 25 5 33 -3 9 -9 283 -12
610 -5 507 -3 598 9 617 13 21 21 22 127 20 82 -1 115 -5 121 -15z m610 -218
c4 -129 9 -596 11 -1038 l5 -802 -30 -15 c-43 -21 -359 -22 -410 0 l-36 15 -3
382 c-2 230 1 388 6 396 8 11 28 12 87 7 58 -5 79 -4 85 6 4 7 7 293 5 634 -1
341 1 628 4 638 7 16 21 17 139 15 l131 -3 6 -235z m619 -376 c0 -480 -3 -605
-12 -602 -7 3 -14 21 -16 41 -3 40 -31 67 -69 67 -23 0 -53 -39 -81 -102 -18
-44 -35 -35 -28 15 4 23 10 65 14 92 4 28 5 140 2 249 -7 289 2 602 18 618 29
29 32 -19 30 -422 l-2 -405 34 -3 c18 -2 42 -1 54 2 l21 5 0 513 c0 282 3 521
7 531 24 58 28 -23 28 -599z m630 7 c0 -366 -4 -612 -9 -616 -14 -8 -23 12
-23 53 0 49 -13 62 -62 62 -40 0 -42 -1 -66 -56 -32 -72 -88 -108 -59 -38 9
22 12 164 10 550 -2 359 0 524 8 528 5 4 20 1 31 -6 21 -13 21 -17 19 -468
l-1 -455 56 -3 56 -3 0 508 c0 279 3 518 6 531 4 12 13 22 20 22 12 0 14 -97
14 -609z m-2443 584 c10 -3 13 -145 15 -642 l3 -638 60 -1 c33 0 65 -1 70 -2
12 -2 8 -783 -4 -795 -6 -6 -364 -13 -432 -8 -9 1 -19 11 -22 23 -3 13 -7 192
-8 398 l-3 375 30 5 29 5 0 150 c0 83 -2 366 -5 631 -4 360 -2 484 7 495 9 11
37 14 130 11 65 -2 124 -5 130 -7z m-2146 -35 c7 -36 25 -1074 21 -1186 -4
-79 5 -86 88 -74 35 5 70 5 78 1 11 -6 14 -74 17 -396 2 -240 0 -396 -6 -407
-9 -17 -27 -18 -223 -18 -211 0 -213 0 -224 23 -7 15 -13 240 -17 717 -3 382
-9 790 -13 905 -4 116 -7 266 -7 335 l0 125 120 6 c168 8 158 9 166 -31z m622
30 c3 -3 7 -291 9 -640 l5 -635 42 -3 c53 -4 61 -22 52 -122 -4 -41 -4 -122
-1 -180 4 -58 7 -193 6 -300 l-1 -195 -30 -15 c-23 -11 -75 -16 -226 -18 -174
-3 -197 -1 -203 13 -3 9 -9 103 -12 208 -3 106 -9 275 -13 377 -4 102 -3 193
1 203 5 10 20 17 38 17 16 0 32 5 36 11 7 12 7 252 -2 841 -5 289 -4 421 4
430 7 9 49 13 150 13 77 0 142 -2 145 -5z m620 0 c2 -3 7 -470 10 -1038 5
-991 4 -1033 -13 -1042 -22 -12 -419 -13 -436 -2 -8 5 -13 132 -18 406 l-7
399 76 -5 c47 -3 80 -1 89 6 11 9 12 46 5 196 -12 287 -12 1072 0 1079 12 8
287 8 294 1z m312 -3 c2 -7 6 -295 9 -642 3 -346 5 -631 6 -632 0 -2 45 -3
100 -3 66 0 100 -4 100 -11 0 -6 1 -184 2 -396 2 -326 0 -386 -13 -394 -8 -5
-107 -8 -224 -6 l-210 2 -7 255 c-13 429 -24 1820 -14 1830 14 14 246 11 251
-3z m-1899 -8 c3 -5 7 -242 10 -526 3 -285 7 -558 9 -608 2 -49 7 -280 11
-512 6 -361 5 -423 -7 -436 -19 -19 -434 -30 -449 -13 -5 7 -10 113 -11 236
-1 124 -6 299 -11 389 -8 134 -7 165 4 173 7 5 51 7 98 6 l85 -3 3 190 c1 105
-2 388 -6 630 -8 360 -7 444 4 462 12 20 21 21 134 21 66 0 122 -4 126 -9z
m3346 -564 c3 -408 7 -568 16 -588 8 -19 9 -34 3 -45 -10 -17 -18 -3 -52 86
-16 42 -101 25 -113 -24 -8 -32 -51 -80 -60 -66 -3 5 1 26 9 46 13 30 15 113
14 547 -1 521 1 562 34 518 9 -12 12 -73 10 -220 -7 -515 -5 -712 9 -720 19
-12 76 -11 83 1 4 6 7 237 8 513 1 276 6 508 11 515 4 8 12 10 16 5 5 -4 10
-260 12 -568z m-4535 553 c10 -13 17 -221 30 -920 l6 -367 69 -3 70 -3 -1
-390 c-1 -255 -5 -393 -12 -400 -6 -6 -91 -10 -232 -10 l-222 0 -6 325 c-4
179 -10 357 -14 397 l-8 72 34 9 34 8 -5 145 c-3 79 -5 367 -5 639 l0 495 120
5 c66 4 123 7 126 8 4 1 11 -4 16 -10z m590 -2 c4 -4 10 -290 11 -634 2 -384
7 -631 13 -637 6 -5 24 -10 42 -10 l32 0 3 -403 c1 -221 -1 -402 -5 -402 -5 0
-103 -3 -220 -5 -184 -5 -213 -4 -227 10 -14 14 -16 55 -16 314 0 164 -3 339
-6 389 l-7 92 62 0 c64 0 65 1 64 56 0 7 -4 225 -7 485 -4 261 -9 532 -11 603
-3 72 0 135 5 141 10 13 254 14 267 1z m-2105 -25 c5 -13 12 -304 16 -645 l7
-621 37 0 c20 0 39 -3 42 -6 3 -3 7 -180 10 -393 l4 -387 -31 -20 c-29 -17
-52 -19 -223 -19 -169 0 -193 2 -207 18 -13 15 -16 68 -18 397 -2 210 1 386 5
393 4 7 22 12 41 12 18 0 35 6 37 13 4 14 -8 865 -15 1093 -4 115 -2 156 8
170 11 17 27 19 145 19 131 -1 133 -1 142 -24z m602 20 c2 -3 7 -235 11 -516
3 -280 10 -593 15 -695 6 -102 10 -336 10 -521 0 -271 -3 -339 -14 -348 -18
-15 -409 -25 -436 -11 -19 10 -20 23 -21 368 -1 196 -2 375 -3 397 l-1 40 82
0 c44 0 84 3 87 6 4 3 2 86 -4 185 -10 194 -14 1087 -4 1097 8 8 273 7 278 -2z
m321 -3 c7 -23 14 -275 21 -780 l7 -498 104 0 103 0 -2 -403 -3 -402 -213 -3
c-123 -1 -220 2 -231 7 -17 9 -18 49 -25 688 -4 373 -9 696 -10 718 -8 115
-18 664 -12 674 10 16 255 15 261 -1z m1289 -10 c3 -13 6 -249 6 -524 0 -557
-5 -515 66 -519 60 -3 68 12 60 117 -4 51 -8 149 -10 218 -2 69 -4 166 -6 216
-1 51 1 97 4 103 11 18 36 13 44 -9 4 -10 9 -178 11 -372 1 -194 7 -361 12
-370 11 -20 12 -58 2 -58 -13 1 -39 43 -47 73 -6 26 -8 27 -76 27 -63 0 -70
-2 -70 -20 0 -20 -14 -27 -24 -11 -8 12 -9 1128 -1 1140 10 18 22 13 29 -11z
m960 -54 c4 -42 6 -274 5 -516 -1 -362 1 -442 12 -449 8 -5 32 -8 54 -7 36 3
40 6 38 28 0 14 -2 174 -3 355 -1 314 -1 330 17 330 17 0 18 -22 23 -420 3
-231 10 -430 14 -442 9 -25 4 -28 -24 -13 -11 6 -22 26 -26 48 -4 20 -12 40
-18 44 -17 12 -74 9 -96 -4 -10 -7 -22 -9 -25 -6 -8 8 -19 1093 -11 1113 3 8
12 15 19 15 10 0 16 -21 21 -76z m2303 -445 c2 -283 0 -524 -2 -536 -5 -21
-11 -23 -68 -23 l-62 0 -26 -53 c-14 -28 -33 -53 -41 -55 -12 -2 -14 6 -7 53
4 30 5 245 3 478 -2 232 -1 466 2 519 7 97 15 116 45 97 12 -7 14 -87 13 -501
-1 -346 2 -495 10 -500 14 -10 64 -10 69 0 3 4 9 117 13 252 8 262 9 274 6
365 -2 98 6 378 13 403 3 13 11 22 18 19 9 -3 13 -125 14 -518z m-7018 491 c8
-15 14 -216 28 -927 l6 -353 27 0 c48 0 57 -17 51 -95 -3 -38 -4 -207 -1 -374
4 -240 2 -308 -8 -322 -12 -18 -30 -19 -227 -19 -194 0 -215 2 -223 18 -5 9
-12 161 -16 337 -4 176 -11 345 -15 375 -11 72 -2 84 60 76 32 -4 50 -2 57 7
7 8 8 59 3 162 -10 171 -14 1095 -6 1116 8 21 253 20 264 -1z m596 -3 c11 -54
33 -2048 23 -2069 -8 -16 -29 -18 -217 -18 -185 0 -210 2 -223 18 -13 14 -16
76 -21 404 -3 267 -2 388 6 391 5 1 42 -1 80 -5 44 -6 74 -5 80 1 11 11 11
298 1 897 -5 259 -3 366 5 381 10 20 19 22 136 22 120 0 125 -1 130 -22z m337
-302 c3 -176 8 -463 10 -638 4 -259 7 -320 19 -331 11 -12 26 -12 72 -4 106
19 98 51 98 -396 0 -280 -3 -392 -12 -402 -9 -11 -53 -14 -214 -14 -199 0
-203 0 -217 23 -13 18 -16 109 -19 577 -1 305 -4 580 -4 610 -6 244 -7 879 -1
889 5 8 44 11 134 9 l127 -3 7 -320z m5322 306 c15 -17 17 -62 17 -500 0 -265
2 -488 5 -496 4 -10 20 -15 45 -15 39 0 39 0 39 39 0 73 34 62 43 -14 11 -86
23 -143 34 -157 6 -7 7 -22 4 -32 -7 -17 -9 -17 -29 9 -12 15 -22 40 -22 55 0
36 -16 48 -67 51 -34 2 -46 -2 -62 -22 -11 -13 -20 -32 -21 -41 0 -10 -6 -18
-12 -18 -10 0 -13 114 -12 538 0 602 1 622 12 622 5 0 16 -8 26 -19z m-6849
-15 c9 -11 13 -85 15 -239 1 -122 5 -404 9 -627 l6 -405 67 3 c36 2 69 -1 72
-6 7 -11 9 -792 2 -799 -8 -8 -426 -9 -439 -1 -9 5 -14 108 -20 375 -4 202 -9
379 -10 393 -2 22 3 26 38 30 47 6 45 -15 27 240 -11 152 -17 1041 -8 1051 2
2 55 3 117 3 92 -1 115 -5 124 -18z m695 -8 c12 -37 20 -281 23 -728 l2 -295
40 -3 c59 -3 68 6 56 60 -9 38 -15 811 -8 923 3 41 20 38 28 -5 11 -56 31
-705 27 -883 -3 -143 -1 -168 16 -205 15 -33 17 -45 8 -54 -13 -13 -32 8 -62
67 -13 27 -20 30 -59 30 -42 0 -46 -2 -65 -42 -12 -23 -25 -41 -31 -39 -17 5
-17 46 -1 88 9 22 14 54 12 71 -13 81 -33 1004 -23 1031 10 25 24 19 37 -16z
m934 -10 c14 -37 16 -114 19 -528 l2 -485 24 -3 c12 -2 33 -1 45 2 l21 5 -3
512 c-1 282 0 519 3 528 5 13 8 12 22 -2 15 -14 18 -81 29 -584 7 -312 15
-584 19 -603 l7 -35 -26 30 c-14 17 -28 39 -32 50 -19 60 -86 75 -123 29 -12
-15 -21 -35 -21 -45 0 -11 -7 -19 -16 -19 -14 0 -15 7 -9 48 10 59 10 132 0
668 -4 237 -4 441 0 453 10 32 22 26 39 -21z m2278 -296 c4 -174 9 -423 12
-552 3 -129 9 -251 15 -270 6 -19 11 -43 11 -54 0 -16 -3 -15 -25 8 -14 15
-25 29 -25 33 0 16 -34 72 -47 77 -34 13 -60 -5 -84 -60 -13 -29 -27 -54 -31
-54 -16 0 -19 23 -7 58 8 23 13 110 15 227 2 205 2 222 -2 607 -2 211 0 259
12 268 31 26 35 -34 32 -519 l-3 -476 55 0 c52 0 55 1 53 25 -1 14 -2 45 -4
70 -1 25 -6 55 -12 68 -8 16 -7 26 1 34 8 8 8 16 2 23 -13 15 -18 795 -6 813
25 39 31 -17 38 -326z m2025 298 c5 -92 3 -897 -3 -926 -4 -21 -2 -40 6 -49
16 -20 60 -19 89 1 28 20 41 7 41 -44 0 -35 -23 -53 -43 -33 -21 21 -61 12
-89 -19 -14 -16 -31 -30 -37 -30 -12 0 -12 22 -16 615 -2 193 0 390 2 438 5
83 7 88 27 85 16 -2 21 -11 23 -38z m-6503 -207 c3 -131 9 -416 12 -633 3
-217 8 -401 10 -409 4 -11 23 -13 97 -8 51 3 97 3 103 -1 7 -5 11 -138 12
-394 2 -332 0 -389 -13 -402 -13 -12 -48 -14 -216 -12 -199 3 -202 3 -220 27
-17 22 -19 53 -19 484 0 498 -7 1179 -15 1422 -3 113 -1 153 8 157 7 2 62 5
123 5 l111 1 7 -237z m93 -296 l1 -512 24 -12 c30 -16 73 -16 86 0 7 8 7 78 1
219 -13 276 -8 813 8 829 24 24 31 -32 37 -316 4 -159 9 -405 12 -545 4 -190
9 -262 20 -284 18 -37 18 -76 1 -76 -8 0 -26 25 -42 55 -15 30 -34 55 -41 56
-18 1 -61 1 -74 0 -6 -1 -20 -17 -31 -36 -12 -19 -24 -33 -28 -30 -10 5 -15
1161 -6 1176 5 8 10 8 19 -1 8 -8 11 -156 13 -523z m2719 522 c4 -7 9 -121 12
-254 3 -187 1 -244 -9 -250 -7 -5 -17 -1 -26 10 -10 15 -13 73 -13 255 0 130
3 240 7 243 10 10 21 8 29 -4z m928 3 c2 -4 8 -133 11 -285 7 -272 6 -277 -13
-277 -11 0 -22 6 -24 13 -12 32 -15 488 -4 533 6 24 20 31 30 16z m143 -4 c4
-7 10 -257 13 -555 4 -415 8 -545 18 -555 14 -14 16 -74 3 -83 -5 -3 -22 21
-36 54 -26 58 -28 59 -71 63 -25 2 -53 0 -64 -4 -11 -4 -22 -3 -25 2 -8 12
-10 349 -2 356 3 4 13 4 22 0 15 -5 16 -23 12 -150 -3 -79 -2 -148 2 -154 3
-6 25 -8 53 -5 l47 6 -7 46 c-9 60 -9 951 0 974 9 20 23 22 35 5z m1201 -107
c2 -69 -1 -118 -7 -124 -7 -7 -7 -14 0 -23 18 -21 7 -59 -18 -62 -26 -4 -25
-6 -23 207 1 114 4 124 28 119 14 -3 17 -21 20 -117z m-4269 95 c8 -9 13 -173
18 -557 4 -431 8 -550 19 -571 17 -33 18 -48 3 -48 -14 0 -36 26 -49 56 -13
32 -97 38 -126 9 -12 -12 -23 -28 -26 -36 -4 -11 -8 -11 -18 -2 -11 10 -11 23
0 70 17 72 28 89 44 68 7 -10 33 -18 65 -21 l54 -5 -8 173 c-4 95 -8 193 -10
218 -6 101 -6 640 0 650 9 14 20 13 34 -4z m6749 -61 c1 -17 -2 -37 -8 -45 -9
-13 -12 -12 -25 4 -16 21 -20 58 -8 70 16 15 38 0 41 -29z m-943 13 c10 -28
12 -634 2 -670 -14 -51 -24 -48 -30 10 -7 62 -8 632 -1 655 6 20 23 23 29 5z
m-3685 -33 c0 -8 -7 -15 -15 -15 -8 0 -15 7 -15 15 0 8 7 15 15 15 8 0 15 -7
15 -15z m-2275 -240 c0 -131 -3 -189 -11 -192 -13 -4 -31 357 -19 377 4 6 12
9 18 7 9 -3 12 -58 12 -192z m2289 122 c8 -33 7 -41 -12 -59 -12 -12 -24 -20
-26 -17 -3 3 -8 31 -12 63 -7 57 -7 58 17 54 18 -2 26 -12 33 -41z m4612 6 c8
-44 -5 -87 -29 -91 -15 -3 -17 5 -17 56 0 32 3 62 7 65 16 17 33 4 39 -30z
m-2 -184 c4 -26 2 -46 -5 -55 -26 -31 -52 32 -33 80 11 30 31 16 38 -25z
m-4600 -65 c3 -9 6 -155 6 -325 0 -253 3 -316 15 -346 8 -19 15 -44 15 -54 0
-32 -20 -32 -31 0 -6 17 -15 31 -19 31 -4 0 -11 11 -14 24 -5 22 -48 46 -82
46 -7 0 -25 -22 -41 -50 -44 -78 -56 -60 -33 45 6 28 10 102 9 165 -3 228 0
270 16 270 23 0 27 -38 24 -217 l-4 -168 29 -3 c15 -2 40 -1 53 3 25 6 25 6
19 88 -10 114 -22 424 -18 470 3 31 7 37 27 37 12 0 26 -7 29 -16z m4600 -140
c9 -24 7 -112 -3 -118 -4 -3 -11 -20 -15 -37 -3 -18 -9 -29 -12 -26 -9 9 -18
163 -10 182 7 20 32 19 40 -1z m-6884 -85 c0 -24 -23 -21 -28 4 -2 10 3 17 12
17 10 0 16 -9 16 -21z m46 -103 c16 -17 19 -46 4 -46 -5 0 -10 7 -10 15 0 8
-4 15 -10 15 -5 0 -10 7 -10 15 0 19 7 19 26 1z m-26 -61 c0 -8 -9 -15 -20
-15 -20 0 -26 11 -13 23 12 13 33 7 33 -8z m-20 -120 c0 -8 -4 -15 -10 -15 -5
0 -10 7 -10 15 0 8 5 15 10 15 6 0 10 -7 10 -15z"/>
</g>
</svg>
